<svg width="200" height="52" viewBox="0 0 200 52" fill="none" xmlns="http://www.w3.org/2000/svg">
<g opacity="0.3">
<path d="M50.6849 18.2454C52.1768 19.7429 52.1768 22.171 50.6849 23.6685L23.5792 50.8768C22.0873 52.3744 19.6685 52.3744 18.1766 50.8768L1.11893 33.7546C-0.372978 32.2571 -0.372977 29.829 1.11893 28.3315L28.2246 1.12317C29.7165 -0.374391 32.1354 -0.374388 33.6273 1.12317L50.6849 18.2454Z" fill="#323231"/>
<path d="M57.0519 23.6685C58.5439 22.171 58.5439 19.7429 57.0519 18.2454L44.5095 5.65541L49.0246 1.12317C50.5165 -0.374391 52.9354 -0.374388 54.4273 1.12317L71.4849 18.2454C72.9768 19.7429 72.9768 22.171 71.4849 23.6685L44.3793 50.8768C42.8874 52.3744 40.4685 52.3744 38.9766 50.8768L34.4614 46.3446L57.0519 23.6685Z" fill="#323231"/>
<path d="M101.396 27.9151C102.836 28.1846 104.02 28.9073 104.947 30.0832C105.875 31.2591 106.338 32.6064 106.338 34.1253C106.338 35.4972 105.997 36.7098 105.313 37.7632C104.654 38.7922 103.69 39.6006 102.421 40.1885C101.152 40.7765 99.6513 41.0705 97.9185 41.0705H86.8994V15.4212H97.4426C99.1754 15.4212 100.664 15.7029 101.909 16.2664C103.178 16.8298 104.13 17.6138 104.764 18.6182C105.423 19.6226 105.753 20.7617 105.753 22.0356C105.753 23.53 105.35 24.7794 104.545 25.7838C103.764 26.7882 102.714 27.4986 101.396 27.9151ZM92.0246 26.0043H96.7104C97.9307 26.0043 98.8703 25.7348 99.5292 25.1958C100.188 24.6324 100.518 23.8362 100.518 22.8073C100.518 21.7784 100.188 20.9822 99.5292 20.4188C98.8703 19.8553 97.9307 19.5736 96.7104 19.5736H92.0246V26.0043ZM97.1863 36.8813C98.431 36.8813 99.395 36.5873 100.078 35.9994C100.786 35.4114 101.14 34.5785 101.14 33.5006C101.14 32.3982 100.774 31.5408 100.042 30.9283C99.3096 30.2914 98.3212 29.9729 97.0765 29.9729H92.0246V36.8813H97.1863Z" fill="#323231"/>
<path d="M117.964 41.4012C116.012 41.4012 114.255 40.9725 112.693 40.115C111.131 39.2331 109.898 37.996 108.995 36.4036C108.117 34.8113 107.677 32.9739 107.677 30.8916C107.677 28.8093 108.129 26.9719 109.032 25.3796C109.959 23.7872 111.216 22.5623 112.803 21.7049C114.389 20.823 116.158 20.382 118.111 20.382C120.063 20.382 121.833 20.823 123.419 21.7049C125.005 22.5623 126.25 23.7872 127.153 25.3796C128.08 26.9719 128.544 28.8093 128.544 30.8916C128.544 32.9739 128.068 34.8113 127.116 36.4036C126.189 37.996 124.92 39.2331 123.309 40.115C121.723 40.9725 119.941 41.4012 117.964 41.4012ZM117.964 36.9181C118.892 36.9181 119.758 36.6976 120.563 36.2566C121.393 35.7912 122.052 35.1052 122.54 34.1988C123.028 33.2924 123.272 32.19 123.272 30.8916C123.272 28.9563 122.76 27.4741 121.735 26.4452C120.734 25.3918 119.502 24.8651 118.038 24.8651C116.573 24.8651 115.341 25.3918 114.34 26.4452C113.364 27.4741 112.876 28.9563 112.876 30.8916C112.876 32.8269 113.352 34.3213 114.303 35.3747C115.28 36.4036 116.5 36.9181 117.964 36.9181Z" fill="#323231"/>
<path d="M135.964 23.873C136.623 22.7951 137.477 21.9499 138.527 21.3374C139.601 20.725 140.821 20.4188 142.188 20.4188V25.8205H140.833C139.222 25.8205 138.002 26.2003 137.172 26.9597C136.367 27.7191 135.964 29.042 135.964 30.9283V41.0705H130.839V20.7127H135.964V23.873Z" fill="#323231"/>
<path d="M142.858 30.8181C142.858 28.7603 143.26 26.9352 144.066 25.3428C144.895 23.7505 146.018 22.5256 147.434 21.6682C148.849 20.8107 150.423 20.382 152.156 20.382C153.474 20.382 154.731 20.676 155.927 21.2639C157.123 21.8274 158.074 22.5868 158.782 23.5422V13.8778H163.98V41.0705H158.782V38.0572C158.148 39.0616 157.257 39.8701 156.11 40.4825C154.963 41.095 153.633 41.4012 152.119 41.4012C150.411 41.4012 148.849 40.9602 147.434 40.0783C146.018 39.1964 144.895 37.9592 144.066 36.3669C143.26 34.75 142.858 32.9004 142.858 30.8181ZM158.819 30.8916C158.819 29.6422 158.575 28.5765 158.087 27.6946C157.598 26.7882 156.939 26.1023 156.11 25.6368C155.28 25.1468 154.389 24.9019 153.437 24.9019C152.485 24.9019 151.607 25.1346 150.802 25.6001C149.996 26.0655 149.337 26.7515 148.825 27.6579C148.337 28.5398 148.093 29.5932 148.093 30.8181C148.093 32.043 148.337 33.1209 148.825 34.0518C149.337 34.9582 149.996 35.6564 150.802 36.1464C151.631 36.6363 152.51 36.8813 153.437 36.8813C154.389 36.8813 155.28 36.6486 156.11 36.1831C156.939 35.6932 157.598 35.0072 158.087 34.1253C158.575 33.2189 158.819 32.141 158.819 30.8916Z" fill="#323231"/>
<path d="M186.375 30.4506C186.375 31.1856 186.326 31.847 186.228 32.435H171.402C171.524 33.9048 172.037 35.0562 172.94 35.8892C173.843 36.7221 174.953 37.1385 176.271 37.1385C178.175 37.1385 179.529 36.3179 180.335 34.6765H185.862C185.277 36.6363 184.154 38.2532 182.494 39.5271C180.835 40.7765 178.797 41.4012 176.381 41.4012C174.428 41.4012 172.671 40.9725 171.109 40.115C169.572 39.2331 168.364 37.996 167.485 36.4036C166.631 34.8113 166.204 32.9739 166.204 30.8916C166.204 28.7848 166.631 26.9352 167.485 25.3428C168.339 23.7505 169.535 22.5256 171.073 21.6682C172.61 20.8107 174.38 20.382 176.381 20.382C178.309 20.382 180.029 20.7985 181.543 21.6314C183.08 22.4643 184.264 23.6525 185.094 25.1958C185.948 26.7147 186.375 28.4663 186.375 30.4506ZM181.067 28.9808C181.042 27.6579 180.566 26.6045 179.639 25.8205C178.712 25.0121 177.577 24.6079 176.234 24.6079C174.965 24.6079 173.892 24.9999 173.013 25.7838C172.159 26.5432 171.634 27.6089 171.439 28.9808H181.067Z" fill="#323231"/>
<path d="M193.777 23.873C194.436 22.7951 195.29 21.9499 196.339 21.3374C197.413 20.725 198.633 20.4188 200 20.4188V25.8205H198.646C197.035 25.8205 195.814 26.2003 194.985 26.9597C194.179 27.7191 193.777 29.042 193.777 30.9283V41.0705H188.651V20.7127H193.777V23.873Z" fill="#323231"/>
</g>
</svg>
