<svg width="46" height="46" viewBox="0 0 46 46" fill="none" xmlns="http://www.w3.org/2000/svg">
<path d="M30.8255 15.483H20.5236C17.5694 15.483 15.1745 17.8798 15.1745 20.8365V26.9831M30.8255 15.483H38.6509C41.6051 15.483 44 17.8798 44 20.8365V35.9292C44 38.4348 41.9705 40.4661 39.4669 40.4661C39.2351 40.4661 39.0472 40.6542 39.0472 40.8862V42.5106C39.0472 43.6747 37.7711 44.3874 36.7812 43.7762L31.5394 40.5399C31.4612 40.4916 31.3712 40.4661 31.2793 40.4661H20.5236C17.5694 40.4661 15.1745 38.0692 15.1745 35.1126V26.9831M30.8255 15.483V7.35353C30.8255 4.39686 28.4306 2 25.4764 2H7.34906C4.39486 2 2 4.39686 2 7.35353V22.4462C2 24.9519 4.02954 26.9831 6.5331 26.9831C6.76491 26.9831 6.95283 27.1712 6.95283 27.4032V29.0276C6.95283 30.1917 8.22885 30.9044 9.21878 30.2932L14.4606 27.0569C14.5388 27.0087 14.6288 26.9831 14.7207 26.9831H15.1745" stroke="#C41E3A" stroke-width="3" stroke-linecap="round"/>
</svg>
