<svg width="46" height="46" viewBox="0 0 46 46" fill="none" xmlns="http://www.w3.org/2000/svg">
<path d="M2 13.7877V38.4528C2 41.5164 4.48355 44 7.54717 44H11.0355M2 13.7877V7.54717C2 4.48355 4.48355 2 7.54717 2H38.4528C41.5164 2 44 4.48355 44 7.54717V13.7877M2 13.7877H44M44 13.7877V38.4528C44 41.5164 41.5164 44 38.4528 44H34.9346M27.5912 19.9292H34.4643C34.678 19.9292 34.8676 20.0663 34.9346 20.2692L37.4301 27.827C37.8533 29.1088 36.8987 30.4292 35.5488 30.4292H34.9346M27.5912 19.9292V28.4481M27.5912 19.9292H18.3789M27.5912 28.4481C27.5912 29.5423 28.4782 30.4292 29.5723 30.4292H34.9346M27.5912 28.4481C27.5912 29.5423 26.7042 30.4292 25.6101 30.4292H20.3601C19.2659 30.4292 18.3789 29.5423 18.3789 28.4481M18.3789 19.9292H11.5059C11.2922 19.9292 11.1026 20.0663 11.0355 20.2692L8.54008 27.827C8.11684 29.1088 9.07143 30.4292 10.4213 30.4292H11.0355M18.3789 19.9292V28.4481M18.3789 28.4481C18.3789 29.5423 17.492 30.4292 16.3978 30.4292H11.0355M34.9346 30.4292V44M34.9346 44H11.0355M11.0355 30.4292V44M31.816 7.99292C31.816 8.62206 31.306 9.13208 30.6769 9.13208C30.0478 9.13208 29.5377 8.62206 29.5377 7.99292C29.5377 7.36379 30.0478 6.85377 30.6769 6.85377C31.306 6.85377 31.816 7.36379 31.816 7.99292ZM37.6604 7.99292C37.6604 8.62206 37.1504 9.13208 36.5212 9.13208C35.8921 9.13208 35.3821 8.62206 35.3821 7.99292C35.3821 7.36379 35.8921 6.85377 36.5212 6.85377C37.1504 6.85377 37.6604 7.36379 37.6604 7.99292Z" stroke="#C41E3A" stroke-width="3" stroke-linecap="round"/>
</svg>
