<svg width="200" height="43" viewBox="0 0 200 43" fill="none" xmlns="http://www.w3.org/2000/svg">
<g opacity="0.3">
<path d="M0 28.1192L14.2479 21.7778L22.4487 26.5339L24.1055 42.137L13.9994 42.0536L15.4904 31.2065L13.7509 30.2052L5.21871 36.8803L0 28.1192Z" fill="#323231"/>
<path d="M23.3604 25.8658L35.9516 35.1276L40.9218 26.1996L30.8157 22.1111V20.1085L40.9218 15.9366L35.9516 7.09203L23.3604 16.3538V25.8658Z" fill="#323231"/>
<path d="M22.4487 15.6031L24.1055 0L13.9994 0.166876L15.4904 11.014L13.7509 12.0152L5.13587 5.34011L0 14.0178L14.2479 20.3592L22.4487 15.6031Z" fill="#323231"/>
<path d="M74.6377 19.1985V33.8165H80.0763V15.1873H72.1556V19.1985H74.6377Z" fill="#323231"/>
<path d="M74.4674 12.5698C74.9661 13.0909 75.7254 13.3515 76.7452 13.3515C77.7651 13.3515 78.5129 13.0909 78.9886 12.5698C79.4873 12.0256 79.7364 11.3457 79.7364 10.53C79.7364 9.69139 79.4873 9.01148 78.9886 8.49033C78.5129 7.94646 77.7651 7.67439 76.7452 7.67439C75.7254 7.67439 74.9661 7.94646 74.4674 8.49033C73.9917 9.01148 73.7536 9.69139 73.7536 10.53C73.7536 11.3457 73.9917 12.0256 74.4674 12.5698Z" fill="#323231"/>
<path d="M55.7027 33.4084C57.2437 34.111 59.1362 34.4624 61.3795 34.4624C63.4871 34.4624 65.3002 34.1337 66.8188 33.4765C68.3373 32.8193 69.5044 31.9013 70.3201 30.723C71.1588 29.5216 71.5781 28.1279 71.5781 26.5415C71.5781 25.0004 71.1817 23.6973 70.3885 22.632C69.6178 21.5443 68.5415 20.6944 67.1587 20.0826C65.7765 19.4479 64.1785 19.0513 62.3654 18.8928L60.462 18.7228C59.3289 18.632 58.5127 18.3262 58.014 17.8048C57.5158 17.2836 57.2662 16.6716 57.2662 15.9693C57.2662 15.4251 57.4025 14.9267 57.674 14.4734C57.9461 13.9974 58.3539 13.6236 58.898 13.3515C59.4646 13.0797 60.156 12.9436 60.9717 12.9436C61.8328 12.9436 62.5466 13.1021 63.1132 13.4196C63.238 13.4867 63.3563 13.5584 63.468 13.6345L63.4948 13.6534C63.5364 13.6821 63.5774 13.712 63.6169 13.7421C63.9612 14.0051 64.2355 14.3169 64.4391 14.6773C64.7336 15.1761 64.8814 15.7311 64.8814 16.3432H70.3201C70.3201 14.7113 69.9462 13.2948 69.1984 12.0938C68.4506 10.87 67.3744 9.92952 65.9692 9.27206C64.5864 8.59215 62.9205 8.2522 60.9717 8.2522C59.1132 8.2522 57.5043 8.56971 56.1445 9.20418C54.7847 9.8162 53.7194 10.7 52.9492 11.8556C52.2008 13.0115 51.8269 14.3828 51.8269 15.9693C51.8269 18.1675 52.5638 19.9351 54.0369 21.2725C55.51 22.6096 57.4819 23.3801 59.9518 23.584L61.8218 23.754C63.3399 23.89 64.4391 24.196 65.119 24.6717C65.7989 25.125 66.1389 25.7482 66.1389 26.5415C66.1389 26.906 66.0792 27.2479 65.9598 27.5673C65.8712 27.8044 65.7496 28.0291 65.5953 28.2412C65.2323 28.7172 64.6997 29.0911 63.9973 29.3632C63.295 29.635 62.4224 29.771 61.3795 29.771C60.2239 29.771 59.2834 29.6125 58.5581 29.295C57.8328 28.9551 57.2892 28.5133 56.9262 27.9694C56.5863 27.4253 56.4166 26.8362 56.4166 26.2015H51.0113C51.0113 27.8107 51.4076 29.2383 52.2008 30.4848C52.994 31.7089 54.1617 32.6833 55.7027 33.4084Z" fill="#323231"/>
<path d="M92.2122 34.0543C90.3313 34.0543 88.8127 33.8277 87.6571 33.3744C86.5009 32.8984 85.6513 32.1167 85.1072 31.029C84.586 29.9183 84.3255 28.4227 84.3255 26.5415V19.1646H81.504V15.1873H84.3255V10.1562H89.3908V15.1873H94.83V19.1646H89.3908V26.7456C89.3908 27.6295 89.6174 28.3094 90.0707 28.7851C90.5464 29.2384 91.2148 29.465 92.0765 29.465H94.83V34.0543H92.2122Z" fill="#323231"/>
<path fill-rule="evenodd" clip-rule="evenodd" d="M101.379 33.6465C102.602 34.1904 104.008 34.4624 105.594 34.4624C107.158 34.4624 108.54 34.1904 109.741 33.6465C110.942 33.1026 111.94 32.3434 112.733 31.3689C113.526 30.3942 114.059 29.2838 114.33 28.0373H109.334C109.107 28.6039 108.676 29.0799 108.042 29.465C107.407 29.8504 106.591 30.0431 105.594 30.0431C104.977 30.0431 104.424 29.97 103.938 29.8238C103.568 29.7127 103.236 29.5591 102.942 29.3632C102.262 28.9099 101.764 28.2752 101.447 27.4595C101.359 27.2271 101.283 26.984 101.22 26.7309C101.155 26.4744 101.103 26.2075 101.064 25.9297H114.67V24.0939C114.67 22.3941 114.308 20.8304 113.583 19.4027C112.857 17.9521 111.804 16.7849 110.421 15.9011C109.061 14.9946 107.384 14.5413 105.39 14.5413C103.871 14.5413 102.512 14.8134 101.31 15.3573C100.132 15.8784 99.1465 16.5922 98.3533 17.4988C97.5601 18.4053 96.948 19.4367 96.5172 20.5926C96.1094 21.7255 95.9057 22.9153 95.9057 24.1618V24.8417C95.9057 26.043 96.1094 27.2214 96.5172 28.3772C96.948 29.5104 97.5601 30.5415 98.3533 31.4708C99.1689 32.3773 100.177 33.1026 101.379 33.6465ZM101.157 22.5682C101.173 22.4962 101.188 22.4254 101.206 22.3556C101.253 22.1634 101.307 21.9792 101.369 21.8032C101.404 21.703 101.441 21.6053 101.481 21.5103C101.821 20.6717 102.319 20.0372 102.976 19.6067C103.222 19.4457 103.488 19.3149 103.774 19.2141C104.255 19.0453 104.794 18.9607 105.39 18.9607C106.319 18.9607 107.09 19.1761 107.702 19.6067C108.336 20.0145 108.812 20.615 109.129 21.4082C109.155 21.4723 109.18 21.5374 109.203 21.6034C109.24 21.7085 109.276 21.8163 109.308 21.9269C109.356 22.0914 109.398 22.2617 109.435 22.4377C109.462 22.5674 109.485 22.7002 109.505 22.8362H101.105C101.121 22.7453 101.139 22.6561 101.157 22.5682Z" fill="#323231"/>
<path d="M116.915 33.8165V15.1873H121.232V19.8793C121.291 19.6004 121.358 19.3327 121.433 19.0759C121.496 18.8597 121.565 18.6511 121.64 18.4508C122.117 17.1816 122.83 16.2299 123.782 15.5951C124.734 14.9379 125.901 14.6095 127.284 14.6095H127.521C128.926 14.6095 130.094 14.9379 131.023 15.5951C131.975 16.2299 132.689 17.1816 133.165 18.4508L133.202 18.5466L133.234 18.6341C133.256 18.5723 133.278 18.5113 133.3 18.4508C133.799 17.1816 134.524 16.2299 135.476 15.5951C136.428 14.9379 137.596 14.6095 138.978 14.6095H139.216C140.621 14.6095 141.799 14.9379 142.751 15.5951C143.726 16.2299 144.462 17.1816 144.961 18.4508C145.459 19.72 145.709 21.3064 145.709 23.2101V33.8165H140.27V22.9041C140.27 21.8842 139.998 21.0571 139.454 20.4226C138.932 19.7879 138.185 19.4706 137.21 19.4706C136.236 19.4706 135.465 19.7993 134.898 20.4565C134.332 21.091 134.048 21.9409 134.048 23.0062V33.8165H128.575V22.9041C128.575 21.8842 128.304 21.0571 127.759 20.4226C127.238 19.7879 126.501 19.4706 125.55 19.4706C124.553 19.4706 123.771 19.7993 123.204 20.4565C122.638 21.091 122.354 21.9409 122.354 23.0062V33.8165H116.915Z" fill="#323231"/>
<path fill-rule="evenodd" clip-rule="evenodd" d="M160.238 30.227V33.8165H164.555V22.3941C164.555 20.6717 164.215 19.2667 163.535 18.1787C162.855 17.0682 161.859 16.2411 160.544 15.6972C159.252 15.1533 157.654 14.8813 155.751 14.8813C155.338 14.8813 154.907 14.8856 154.458 14.8947C154.193 14.9002 153.921 14.907 153.643 14.9152C152.895 14.9379 152.17 14.9719 151.467 15.0173L150.931 15.0534C150.655 15.0726 150.396 15.0915 150.152 15.1106C149.97 15.1249 149.796 15.1391 149.632 15.1533V19.7427C150.334 19.6973 151.116 19.6518 151.978 19.6067C152.218 19.5941 152.457 19.5823 152.694 19.5713C153.036 19.5555 153.374 19.5418 153.708 19.5297C153.972 19.5202 154.233 19.5117 154.493 19.5046C155.309 19.4818 155.966 19.4706 156.465 19.4706C157.462 19.4706 158.187 19.7085 158.64 20.1845C159.094 20.6604 159.32 21.3743 159.32 22.3263V22.3941H155.955C154.3 22.3941 152.839 22.6096 151.569 23.0401C150.3 23.4479 149.314 24.0939 148.612 24.9777C147.909 25.8391 147.558 26.9496 147.558 28.3094C147.558 29.5559 147.841 30.6324 148.408 31.5389C148.974 32.4227 149.756 33.1026 150.753 33.5784C151.773 34.0543 152.952 34.2925 154.289 34.2925C155.581 34.2925 156.668 34.0543 157.553 33.5784C158.459 33.1026 159.161 32.4227 159.66 31.5389C159.748 31.39 159.83 31.2354 159.906 31.075C160.014 30.8478 160.11 30.6091 160.195 30.3589L160.238 30.227ZM159.32 26.9156V25.4198H155.921C154.969 25.4198 154.232 25.6576 153.711 26.1336C153.213 26.5869 152.963 27.2101 152.963 28.0034C152.963 28.3767 153.025 28.7161 153.15 29.0218C153.274 29.3284 153.462 29.6007 153.711 29.8391C154.232 30.2924 154.969 30.5191 155.921 30.5191C156.102 30.5191 156.277 30.51 156.446 30.4922C156.584 30.4777 156.718 30.4572 156.848 30.4306C157.098 30.38 157.332 30.3075 157.553 30.213C158.051 29.9864 158.459 29.6125 158.776 29.0911C159.094 28.5699 159.275 27.8446 159.32 26.9156Z" fill="#323231"/>
<path d="M167.81 33.8165V15.1873H172.128V21.3362C172.335 19.5809 172.856 18.1656 173.692 17.091C174.825 15.6633 176.456 14.9494 178.587 14.9494H179.301V19.6406H177.941C176.445 19.6406 175.289 20.0484 174.473 20.8644C173.657 21.6576 173.249 22.8135 173.249 24.3318V33.8165H167.81Z" fill="#323231"/>
<path d="M186.198 25.1138H188L193.881 33.8165H200L192.543 23.1285L198.674 15.1873H192.963L186.198 24.0452V9.00026H180.759V33.8165H186.198V25.1138Z" fill="#323231"/>
</g>
</svg>
