<svg width="198" height="52" viewBox="0 0 198 52" fill="none" xmlns="http://www.w3.org/2000/svg">
<g opacity="0.3">
<path d="M105.201 25.2915C103.96 26.4935 103.339 28.2451 103.339 30.5462V44.9196H95.063V16.6881H101.632V26.0045C101.947 23.3452 102.74 21.2014 104.011 19.573C105.736 17.4093 108.218 16.3275 111.46 16.3275H112.546V23.4368H110.477C108.201 23.4368 106.443 24.0551 105.201 25.2915Z" fill="#323231"/>
<path fill-rule="evenodd" clip-rule="evenodd" d="M130.288 41.4679C130.643 40.8676 130.936 40.2053 131.167 39.4808V44.9196H137.736V27.6097C137.736 24.9995 137.219 22.8702 136.184 21.2216C135.15 19.5387 133.632 18.2851 131.632 17.4608C129.667 16.6366 127.236 16.2244 124.339 16.2244C123.339 16.2244 122.27 16.2416 121.132 16.2759C119.994 16.3103 118.891 16.3618 117.822 16.4305C116.753 16.4992 115.822 16.5679 115.029 16.6366V23.5914C116.098 23.5227 117.287 23.454 118.598 23.3853C119.908 23.3166 121.184 23.2651 122.425 23.2308C123.667 23.1964 124.667 23.1793 125.425 23.1793C126.943 23.1793 128.046 23.5399 128.736 24.2611C129.425 24.9824 129.77 26.0642 129.77 27.5067V27.6097H124.649C122.132 27.6097 119.908 27.936 117.977 28.5886C116.046 29.2068 114.546 30.1856 113.477 31.5251C112.408 32.8302 111.873 34.5131 111.873 36.5738C111.873 38.4627 112.304 40.0941 113.166 41.4679C114.029 42.8074 115.218 43.8377 116.735 44.5589C118.287 45.2802 120.08 45.6408 122.115 45.6408C124.08 45.6408 125.736 45.2802 127.081 44.5589C128.46 43.8377 129.529 42.8074 130.288 41.4679ZM128.943 37.7587C129.425 36.9687 129.701 35.8697 129.77 34.4616V32.1948H124.598C123.149 32.1948 122.029 32.5554 121.236 33.2767C120.477 33.9635 120.098 34.908 120.098 36.1101C120.098 37.2435 120.477 38.1708 121.236 38.892C122.029 39.5789 123.149 39.9224 124.598 39.9224C125.529 39.9224 126.356 39.7678 127.081 39.4587C127.839 39.1153 128.46 38.5486 128.943 37.7587Z" fill="#323231"/>
<path d="M154.896 45.8984C152.447 45.8984 150.31 45.5034 148.482 44.7135C146.689 43.8892 145.189 42.7902 143.982 41.4164C142.775 40.0426 141.878 38.4971 141.292 36.7798C140.706 35.0282 140.413 33.2251 140.413 31.3705V30.3917C140.413 28.4684 140.723 26.6309 141.344 24.8793C141.965 23.0934 142.878 21.5135 144.085 20.1397C145.292 18.7659 146.792 17.6841 148.585 16.8941C150.413 16.1042 152.499 15.7093 154.844 15.7093C157.396 15.7093 159.655 16.2073 161.62 17.2033C163.586 18.1649 165.155 19.5215 166.327 21.2731C167.5 23.0247 168.155 25.0339 168.293 27.3006H160.172C160.034 26.0299 159.517 24.9652 158.62 24.1066C157.758 23.2136 156.499 22.7671 154.844 22.7671C153.465 22.7671 152.31 23.1106 151.379 23.7975C150.482 24.4844 149.81 25.4288 149.361 26.6309C148.913 27.833 148.689 29.2583 148.689 30.9069C148.689 32.418 148.896 33.7918 149.309 35.0282C149.723 36.2303 150.378 37.1748 151.275 37.8617C152.206 38.5142 153.413 38.8405 154.896 38.8405C155.999 38.8405 156.93 38.6516 157.689 38.2738C158.482 37.8617 159.103 37.3122 159.551 36.6253C160.034 35.904 160.327 35.0798 160.43 34.1524H168.5C168.396 36.4879 167.741 38.5486 166.534 40.3345C165.327 42.0861 163.724 43.4599 161.724 44.4559C159.724 45.4176 157.448 45.8984 154.896 45.8984Z" fill="#323231"/>
<path fill-rule="evenodd" clip-rule="evenodd" d="M177.775 44.662C179.638 45.4863 181.776 45.8984 184.189 45.8984C186.569 45.8984 188.672 45.4863 190.5 44.662C192.327 43.8377 193.845 42.6871 195.052 41.2103C196.259 39.7335 197.069 38.0506 197.483 36.1616H189.879C189.534 37.0202 188.879 37.7415 187.914 38.3253C186.948 38.9092 185.707 39.2011 184.189 39.2011C182.534 39.2011 181.189 38.8577 180.155 38.1708C179.12 37.4839 178.362 36.5222 177.879 35.2858C177.61 34.5772 177.415 33.8044 177.296 32.9675H198V30.1856C198 27.6097 197.448 25.24 196.345 23.0762C195.241 20.8782 193.638 19.1094 191.534 17.7699C189.465 16.3961 186.914 15.7093 183.879 15.7093C181.569 15.7093 179.5 16.1214 177.672 16.9457C175.879 17.7356 174.379 18.8175 173.172 20.1913C171.965 21.5651 171.034 23.1277 170.379 24.8793C169.758 26.5966 169.448 28.3997 169.448 30.2887V31.319C169.448 33.1393 169.758 34.9252 170.379 36.6768C171.034 38.394 171.965 39.9567 173.172 41.3649C174.413 42.7387 175.948 43.8377 177.775 44.662ZM177.36 28.2795C177.489 27.5408 177.679 26.8711 177.931 26.2703C178.448 24.9995 179.206 24.0379 180.206 23.3853C181.207 22.7328 182.431 22.4065 183.879 22.4065C185.293 22.4065 186.465 22.7328 187.396 23.3853C188.362 24.0035 189.086 24.9137 189.569 26.1157C189.83 26.7665 190.021 27.4878 190.141 28.2795H177.36Z" fill="#323231"/>
<path d="M75.3576 44.9196V14.6789H64.7539V7.31193H94.496V14.6789H83.8406V44.9196H75.3576Z" fill="#323231"/>
<path fill-rule="evenodd" clip-rule="evenodd" d="M26.105 4.72727C14.3089 4.72727 4.74636 14.2514 4.74636 26C4.74636 37.7486 14.3089 47.2727 26.105 47.2727C37.901 47.2727 47.4636 37.7486 47.4636 26C47.4636 14.2514 37.901 4.72727 26.105 4.72727ZM0 26C0 11.6406 11.6876 0 26.105 0C40.5224 0 52.21 11.6406 52.21 26C52.21 40.3594 40.5224 52 26.105 52C11.6876 52 0 40.3594 0 26Z" fill="#323231"/>
<path fill-rule="evenodd" clip-rule="evenodd" d="M39.1281 17.1852C39.8238 15.0026 37.7455 12.9526 35.5609 13.6666L20.68 18.5297C19.8186 18.8112 19.1456 19.488 18.8713 20.3486L14.2604 34.8147C13.5647 36.9974 15.6429 39.0474 17.8275 38.3334L32.7084 33.4702C33.5698 33.1887 34.2428 32.512 34.5171 31.6513L39.1281 17.1852ZM26.6915 29.3765C28.5638 29.3765 30.0817 27.8648 30.0817 25.9999C30.0817 24.1351 28.5638 22.6233 26.6915 22.6233C24.8191 22.6233 23.3012 24.1351 23.3012 25.9999C23.3012 27.8648 24.8191 29.3765 26.6915 29.3765Z" fill="#323231"/>
</g>
</svg>
