<svg width="340" height="100" viewBox="0 0 340 100" fill="none" xmlns="http://www.w3.org/2000/svg">
<path fill-rule="evenodd" clip-rule="evenodd" d="M44.2327 0.60675L85.9854 24.9703C86.6137 25.337 87 26.0093 87 26.7362V73.863C87 74.5976 86.6056 75.2757 85.9668 75.6396L44.214 99.4185C43.5817 99.7786 42.8056 99.7762 42.1755 99.4123L1.0224 75.6417C0.389674 75.2762 0 74.6015 0 73.8713V26.7278C0 26.0054 0.381534 25.3366 1.00369 24.9684L16.3765 15.8705L29.0682 56.2372L38.4847 28.8344H49.3341L57.9318 56.2372L67.3482 28.8344L43.1929 14.7239L27.0212 24.1309L23.1514 11.8609L42.1569 0.613148C42.7964 0.234695 43.591 0.232246 44.2327 0.60675ZM74.5129 67.8937V43.7628L65.0965 70.9611H51.5859L43.6024 45.6033L35.0047 70.9611H21.6988L12.4871 43.7628V67.8937L43.1929 85.8896L74.5129 67.8937Z" fill="url(#paint0_linear_58_430)"/>
<path d="M113.156 28.9746V68H105.844V28.9746H113.156ZM130.473 40.5273L118.539 54.1367L112.141 60.6113L109.475 55.3301L114.553 48.8809L121.688 40.5273H130.473ZM122.881 68L114.756 55.3047L119.809 50.8867L131.311 68H122.881ZM132.453 54.543V54.0098C132.453 51.9954 132.741 50.1419 133.316 48.4492C133.892 46.7396 134.73 45.2585 135.83 44.0059C136.93 42.7533 138.285 41.7799 139.893 41.0859C141.501 40.375 143.346 40.0195 145.428 40.0195C147.51 40.0195 149.363 40.375 150.988 41.0859C152.613 41.7799 153.976 42.7533 155.076 44.0059C156.193 45.2585 157.04 46.7396 157.615 48.4492C158.191 50.1419 158.479 51.9954 158.479 54.0098V54.543C158.479 56.5404 158.191 58.3939 157.615 60.1035C157.04 61.7962 156.193 63.2773 155.076 64.5469C153.976 65.7995 152.622 66.7728 151.014 67.4668C149.406 68.1608 147.561 68.5078 145.479 68.5078C143.396 68.5078 141.543 68.1608 139.918 67.4668C138.31 66.7728 136.947 65.7995 135.83 64.5469C134.73 63.2773 133.892 61.7962 133.316 60.1035C132.741 58.3939 132.453 56.5404 132.453 54.543ZM139.766 54.0098V54.543C139.766 55.694 139.867 56.7689 140.07 57.7676C140.273 58.7663 140.595 59.6465 141.035 60.4082C141.492 61.153 142.085 61.737 142.812 62.1602C143.54 62.5833 144.429 62.7949 145.479 62.7949C146.494 62.7949 147.366 62.5833 148.094 62.1602C148.822 61.737 149.406 61.153 149.846 60.4082C150.286 59.6465 150.607 58.7663 150.811 57.7676C151.031 56.7689 151.141 55.694 151.141 54.543V54.0098C151.141 52.8926 151.031 51.8431 150.811 50.8613C150.607 49.8626 150.277 48.9824 149.82 48.2207C149.38 47.4421 148.796 46.8327 148.068 46.3926C147.34 45.9525 146.46 45.7324 145.428 45.7324C144.395 45.7324 143.515 45.9525 142.787 46.3926C142.076 46.8327 141.492 47.4421 141.035 48.2207C140.595 48.9824 140.273 49.8626 140.07 50.8613C139.867 51.8431 139.766 52.8926 139.766 54.0098ZM179.197 62.0078V29H186.561V68H179.934L179.197 62.0078ZM161.83 54.5938V54.0605C161.83 51.9616 162.067 50.0573 162.541 48.3477C163.015 46.6211 163.709 45.14 164.623 43.9043C165.537 42.6686 166.663 41.7122 168 41.0352C169.337 40.3581 170.861 40.0195 172.57 40.0195C174.178 40.0195 175.583 40.3581 176.785 41.0352C178.004 41.7122 179.036 42.6771 179.883 43.9297C180.746 45.1654 181.44 46.6296 181.965 48.3223C182.49 49.998 182.87 51.8346 183.107 53.832V55C182.87 56.9128 182.49 58.6901 181.965 60.332C181.44 61.974 180.746 63.4128 179.883 64.6484C179.036 65.8672 178.004 66.8151 176.785 67.4922C175.566 68.1693 174.145 68.5078 172.52 68.5078C170.81 68.5078 169.286 68.1608 167.949 67.4668C166.629 66.7728 165.512 65.7995 164.598 64.5469C163.701 63.2943 163.015 61.8216 162.541 60.1289C162.067 58.4362 161.83 56.5911 161.83 54.5938ZM169.143 54.0605V54.5938C169.143 55.7279 169.227 56.7858 169.396 57.7676C169.583 58.7493 169.879 59.6211 170.285 60.3828C170.708 61.1276 171.25 61.7116 171.91 62.1348C172.587 62.541 173.408 62.7441 174.373 62.7441C175.626 62.7441 176.658 62.4648 177.471 61.9062C178.283 61.3307 178.901 60.5436 179.324 59.5449C179.764 58.5462 180.018 57.3952 180.086 56.0918V52.7656C180.035 51.6992 179.883 50.7428 179.629 49.8965C179.392 49.0332 179.036 48.2969 178.562 47.6875C178.105 47.0781 177.53 46.6042 176.836 46.2656C176.159 45.9271 175.355 45.7578 174.424 45.7578C173.476 45.7578 172.663 45.9779 171.986 46.418C171.309 46.8411 170.759 47.4251 170.336 48.1699C169.93 48.9147 169.625 49.7949 169.422 50.8105C169.236 51.8092 169.143 52.8926 169.143 54.0605ZM278.957 64.4707C278.957 63.3874 279.329 62.4818 280.074 61.7539C280.836 61.026 281.843 60.6621 283.096 60.6621C284.348 60.6621 285.347 61.026 286.092 61.7539C286.854 62.4818 287.234 63.3874 287.234 64.4707C287.234 65.554 286.854 66.4596 286.092 67.1875C285.347 67.9154 284.348 68.2793 283.096 68.2793C281.843 68.2793 280.836 67.9154 280.074 67.1875C279.329 66.4596 278.957 65.554 278.957 64.4707ZM300.996 46.5195V68H293.684V40.5273H300.564L300.996 46.5195ZM309.273 40.3496L309.146 47.1289C308.791 47.0781 308.359 47.0358 307.852 47.002C307.361 46.9512 306.912 46.9258 306.506 46.9258C305.473 46.9258 304.576 47.0612 303.814 47.332C303.07 47.5859 302.443 47.9668 301.936 48.4746C301.445 48.9824 301.072 49.6003 300.818 50.3281C300.581 51.056 300.446 51.8854 300.412 52.8164L298.939 52.3594C298.939 50.582 299.117 48.9486 299.473 47.459C299.828 45.9525 300.344 44.6406 301.021 43.5234C301.715 42.4062 302.562 41.543 303.561 40.9336C304.559 40.3242 305.702 40.0195 306.988 40.0195C307.395 40.0195 307.809 40.0534 308.232 40.1211C308.656 40.1719 309.003 40.248 309.273 40.3496ZM328.977 61.4238V40.5273H336.289V68H329.408L328.977 61.4238ZM329.789 55.7871L331.947 55.7363C331.947 57.5645 331.736 59.2656 331.312 60.8398C330.889 62.3971 330.255 63.7513 329.408 64.9023C328.562 66.0365 327.495 66.9251 326.209 67.5684C324.923 68.1947 323.408 68.5078 321.664 68.5078C320.327 68.5078 319.091 68.3216 317.957 67.9492C316.84 67.5599 315.875 66.959 315.062 66.1465C314.267 65.3171 313.641 64.2591 313.184 62.9727C312.743 61.6693 312.523 60.1035 312.523 58.2754V40.5273H319.836V58.3262C319.836 59.1387 319.929 59.8242 320.115 60.3828C320.318 60.9414 320.598 61.3984 320.953 61.7539C321.309 62.1094 321.723 62.3633 322.197 62.5156C322.688 62.668 323.23 62.7441 323.822 62.7441C325.329 62.7441 326.514 62.4395 327.377 61.8301C328.257 61.2207 328.875 60.3913 329.23 59.3418C329.603 58.2754 329.789 57.0905 329.789 55.7871Z" fill="#111111"/>
<path d="M207.102 61.8047V49.5664C207.102 48.6862 206.958 47.9329 206.67 47.3066C206.382 46.6634 205.934 46.1641 205.324 45.8086C204.732 45.4531 203.962 45.2754 203.014 45.2754C202.201 45.2754 201.499 45.4193 200.906 45.707C200.314 45.9779 199.857 46.3757 199.535 46.9004C199.214 47.4082 199.053 48.0091 199.053 48.7031H191.74C191.74 47.5352 192.011 46.4264 192.553 45.377C193.094 44.3275 193.882 43.4049 194.914 42.6094C195.947 41.7969 197.174 41.1621 198.596 40.7051C200.035 40.248 201.643 40.0195 203.42 40.0195C205.553 40.0195 207.449 40.375 209.107 41.0859C210.766 41.7969 212.07 42.8633 213.018 44.2852C213.982 45.707 214.465 47.4844 214.465 49.6172V61.373C214.465 62.8796 214.558 64.1152 214.744 65.0801C214.93 66.028 215.201 66.8574 215.557 67.5684V68H208.168C207.812 67.2552 207.542 66.3242 207.355 65.207C207.186 64.0729 207.102 62.9388 207.102 61.8047ZM208.066 51.2676L208.117 55.4062H204.029C203.064 55.4062 202.227 55.5163 201.516 55.7363C200.805 55.9564 200.221 56.2695 199.764 56.6758C199.307 57.0651 198.968 57.5221 198.748 58.0469C198.545 58.5716 198.443 59.1471 198.443 59.7734C198.443 60.3997 198.587 60.9668 198.875 61.4746C199.163 61.9655 199.577 62.3548 200.119 62.6426C200.661 62.9134 201.296 63.0488 202.023 63.0488C203.124 63.0488 204.08 62.8288 204.893 62.3887C205.705 61.9486 206.331 61.4069 206.771 60.7637C207.229 60.1204 207.465 59.5111 207.482 58.9355L209.412 62.0332C209.141 62.7272 208.769 63.4466 208.295 64.1914C207.838 64.9362 207.254 65.6387 206.543 66.2988C205.832 66.9421 204.977 67.4753 203.979 67.8984C202.98 68.3047 201.795 68.5078 200.424 68.5078C198.68 68.5078 197.098 68.1608 195.676 67.4668C194.271 66.7559 193.154 65.7826 192.324 64.5469C191.512 63.2943 191.105 61.8724 191.105 60.2812C191.105 58.8424 191.376 57.5645 191.918 56.4473C192.46 55.3301 193.255 54.3906 194.305 53.6289C195.371 52.8503 196.7 52.2663 198.291 51.877C199.882 51.4707 201.727 51.2676 203.826 51.2676H208.066ZM227.414 45.8086V78.5625H220.102V40.5273H226.881L227.414 45.8086ZM244.807 53.959V54.4922C244.807 56.4896 244.57 58.3431 244.096 60.0527C243.639 61.7624 242.962 63.252 242.064 64.5215C241.167 65.7741 240.05 66.7559 238.713 67.4668C237.393 68.1608 235.869 68.5078 234.143 68.5078C232.467 68.5078 231.011 68.1693 229.775 67.4922C228.54 66.8151 227.499 65.8672 226.652 64.6484C225.823 63.4128 225.154 61.9824 224.646 60.3574C224.139 58.7324 223.749 56.9889 223.479 55.127V53.7305C223.749 51.7331 224.139 49.9049 224.646 48.2461C225.154 46.5703 225.823 45.123 226.652 43.9043C227.499 42.6686 228.531 41.7122 229.75 41.0352C230.986 40.3581 232.433 40.0195 234.092 40.0195C235.835 40.0195 237.367 40.3496 238.688 41.0098C240.025 41.6699 241.142 42.6178 242.039 43.8535C242.953 45.0892 243.639 46.5618 244.096 48.2715C244.57 49.9811 244.807 51.877 244.807 53.959ZM237.469 54.4922V53.959C237.469 52.791 237.367 51.7161 237.164 50.7344C236.978 49.7357 236.673 48.8639 236.25 48.1191C235.844 47.3743 235.302 46.7988 234.625 46.3926C233.965 45.9694 233.161 45.7578 232.213 45.7578C231.214 45.7578 230.359 45.9186 229.648 46.2402C228.954 46.5618 228.387 47.0273 227.947 47.6367C227.507 48.2461 227.177 48.974 226.957 49.8203C226.737 50.6667 226.602 51.623 226.551 52.6895V56.2188C226.635 57.4714 226.872 58.597 227.262 59.5957C227.651 60.5775 228.252 61.3561 229.064 61.9316C229.877 62.5072 230.943 62.7949 232.264 62.7949C233.229 62.7949 234.041 62.5833 234.701 62.1602C235.361 61.7201 235.895 61.1191 236.301 60.3574C236.724 59.5957 237.02 58.7155 237.189 57.7168C237.376 56.7181 237.469 55.6432 237.469 54.4922ZM256.664 45.8086V78.5625H249.352V40.5273H256.131L256.664 45.8086ZM274.057 53.959V54.4922C274.057 56.4896 273.82 58.3431 273.346 60.0527C272.889 61.7624 272.212 63.252 271.314 64.5215C270.417 65.7741 269.3 66.7559 267.963 67.4668C266.643 68.1608 265.119 68.5078 263.393 68.5078C261.717 68.5078 260.261 68.1693 259.025 67.4922C257.79 66.8151 256.749 65.8672 255.902 64.6484C255.073 63.4128 254.404 61.9824 253.896 60.3574C253.389 58.7324 252.999 56.9889 252.729 55.127V53.7305C252.999 51.7331 253.389 49.9049 253.896 48.2461C254.404 46.5703 255.073 45.123 255.902 43.9043C256.749 42.6686 257.781 41.7122 259 41.0352C260.236 40.3581 261.683 40.0195 263.342 40.0195C265.085 40.0195 266.617 40.3496 267.938 41.0098C269.275 41.6699 270.392 42.6178 271.289 43.8535C272.203 45.0892 272.889 46.5618 273.346 48.2715C273.82 49.9811 274.057 51.877 274.057 53.959ZM266.719 54.4922V53.959C266.719 52.791 266.617 51.7161 266.414 50.7344C266.228 49.7357 265.923 48.8639 265.5 48.1191C265.094 47.3743 264.552 46.7988 263.875 46.3926C263.215 45.9694 262.411 45.7578 261.463 45.7578C260.464 45.7578 259.609 45.9186 258.898 46.2402C258.204 46.5618 257.637 47.0273 257.197 47.6367C256.757 48.2461 256.427 48.974 256.207 49.8203C255.987 50.6667 255.852 51.623 255.801 52.6895V56.2188C255.885 57.4714 256.122 58.597 256.512 59.5957C256.901 60.5775 257.502 61.3561 258.314 61.9316C259.127 62.5072 260.193 62.7949 261.514 62.7949C262.479 62.7949 263.291 62.5833 263.951 62.1602C264.611 61.7201 265.145 61.1191 265.551 60.3574C265.974 59.5957 266.27 58.7155 266.439 57.7168C266.626 56.7181 266.719 55.6432 266.719 54.4922Z" fill="#C41E3A"/>
<defs>
<linearGradient id="paint0_linear_58_430" x1="1.6205e-07" y1="50" x2="87" y2="50" gradientUnits="userSpaceOnUse">
<stop stop-color="#BA1833"/>
<stop offset="1" stop-color="#D73954"/>
</linearGradient>
</defs>
</svg>
