<svg width="220" height="42" viewBox="0 0 220 42" fill="none" xmlns="http://www.w3.org/2000/svg">
<g opacity="0.3">
<path d="M5.41898 4.6769C8.41443 1.85571 12.4818 0.208977 16.6042 0.00417953C18.0151 0.00417953 19.4302 0.0125386 20.8411 0C20.769 1.49209 20.8411 2.98837 20.7987 4.48046C20.5996 7.81573 19.3497 11.0758 17.244 13.6921C14.507 17.2113 10.321 19.5728 5.87656 20.183C3.93609 20.4922 1.96596 20.2958 0.012776 20.3501C0.0466707 18.7076 -0.0592502 17.0609 0.0720918 15.4225C0.453407 11.36 2.39812 7.46882 5.41898 4.6769Z" fill="#323231"/>
<path d="M22.1476 0C23.6602 0.0167181 25.1727 -0.00835906 26.6895 0.00835906C30.4645 0.27167 34.1887 1.70107 37.0316 4.17953C40.1669 6.83353 42.315 10.6285 42.8658 14.6827C43.1073 16.5635 42.9547 18.4652 43.0479 20.3543C41.7261 20.3501 40.4084 20.346 39.0865 20.3543C35.8369 20.2666 32.6423 19.23 29.9222 17.483C28.6681 16.5969 27.3801 15.6983 26.4395 14.4695C24.3762 12.1959 22.9738 9.34125 22.4442 6.33199C22.0459 4.24222 22.2069 2.11066 22.1476 0Z" fill="#323231"/>
<path d="M0.0156616 21.5496C1.35874 21.6248 2.70605 21.4869 4.04489 21.6331C9.77734 21.7543 15.3403 24.9308 18.3103 29.7665C20.0135 32.4748 20.9287 35.6847 20.8101 38.8737C20.8058 39.9186 20.8228 40.9593 20.7931 42C18.6662 41.9373 16.5181 42.1087 14.4124 41.7033C9.73497 40.9259 5.43458 38.1799 2.84587 34.2595C0.884213 31.4091 -0.0944962 27.9275 0.00718789 24.4878C0.00718789 23.5056 0.00718789 22.5276 0.0156616 21.5496Z" fill="#323231"/>
<path d="M35.8893 21.9923C38.1941 21.4866 40.571 21.5702 42.914 21.5702L43.0157 21.6705C42.9648 23.8564 43.1385 26.0674 42.6937 28.2282C41.7573 33.0765 38.5034 37.4064 34.1268 39.7846C31.4025 41.2809 28.2757 42.0165 25.1616 41.983C24.166 41.9872 23.1661 41.9663 22.1704 41.9956C22.1704 40.1858 22.0942 38.3677 22.3018 36.5664C22.7848 32.2071 25.1743 28.1488 28.6104 25.407C30.7373 23.7519 33.237 22.5524 35.8893 21.9923Z" fill="#323231"/>
<path d="M60.4089 33.9049C60.4089 34.6407 60.1507 35.2633 59.6343 35.7727C59.1466 36.2538 58.5299 36.4943 57.784 36.4943C57.0668 36.4943 56.4643 36.2538 55.9766 35.7727C55.4889 35.2633 55.2451 34.6407 55.2451 33.9049V7.67064C55.2451 6.93484 55.4889 6.32638 55.9766 5.84528C56.493 5.33588 57.1241 5.08118 57.87 5.08118C58.6159 5.08118 59.2184 5.33588 59.6774 5.84528C60.1651 6.32638 60.4089 6.93484 60.4089 7.67064V33.9049Z" fill="#323231"/>
<path d="M81.1353 13.7835C81.8812 13.7835 82.498 14.0382 82.9857 14.5476C83.4734 15.0287 83.7173 15.6371 83.7173 16.3729V27.1553C83.7173 30.1551 82.871 32.5323 81.1784 34.2869C79.4858 36.0415 77.0473 36.9188 73.8629 36.9188C70.6785 36.9188 68.24 36.0415 66.5474 34.2869C64.8835 32.5323 64.0515 30.1551 64.0515 27.1553V16.3729C64.0515 15.6371 64.2954 15.0287 64.7831 14.5476C65.2708 14.0382 65.8876 13.7835 66.6335 13.7835C67.3794 13.7835 67.9962 14.0382 68.4839 14.5476C68.9716 15.0287 69.2154 15.6371 69.2154 16.3729V27.1553C69.2154 28.8816 69.6027 30.1692 70.3773 31.0182C71.1519 31.839 72.3137 32.2493 73.8629 32.2493C75.4407 32.2493 76.617 31.839 77.3915 31.0182C78.1661 30.1692 78.5534 28.8816 78.5534 27.1553V16.3729C78.5534 15.6371 78.7972 15.0287 79.285 14.5476C79.7727 14.0382 80.3894 13.7835 81.1353 13.7835Z" fill="#323231"/>
<path d="M99.2482 13.359C101.543 13.359 103.236 13.9108 104.326 15.0145C105.416 16.0899 106.133 17.4908 106.478 19.2171L105.746 18.835L106.09 18.1558C106.435 17.5049 106.965 16.8116 107.683 16.0758C108.4 15.3117 109.26 14.6749 110.264 14.1655C111.297 13.6278 112.445 13.359 113.707 13.359C115.773 13.359 117.336 13.7976 118.398 14.6749C119.488 15.5522 120.234 16.7267 120.635 18.1983C121.037 19.6416 121.238 21.2547 121.238 23.0376V33.9049C121.238 34.6407 120.994 35.2633 120.506 35.7727C120.018 36.2538 119.402 36.4943 118.656 36.4943C117.91 36.4943 117.293 36.2538 116.805 35.7727C116.318 35.2633 116.074 34.6407 116.074 33.9049V23.0376C116.074 22.1037 115.959 21.2689 115.73 20.5331C115.5 19.7689 115.084 19.1605 114.482 18.7077C113.879 18.2549 113.019 18.0285 111.9 18.0285C110.81 18.0285 109.877 18.2549 109.103 18.7077C108.328 19.1605 107.74 19.7689 107.338 20.5331C106.965 21.2689 106.779 22.1037 106.779 23.0376V33.9049C106.779 34.6407 106.535 35.2633 106.047 35.7727C105.56 36.2538 104.943 36.4943 104.197 36.4943C103.451 36.4943 102.834 36.2538 102.347 35.7727C101.859 35.2633 101.615 34.6407 101.615 33.9049V23.0376C101.615 22.1037 101.5 21.2689 101.271 20.5331C101.041 19.7689 100.625 19.1605 100.023 18.7077C99.4203 18.2549 98.5597 18.0285 97.4408 18.0285C96.3507 18.0285 95.4183 18.2549 94.6438 18.7077C93.8692 19.1605 93.2811 19.7689 92.8794 20.5331C92.5065 21.2689 92.32 22.1037 92.32 23.0376V33.9049C92.32 34.6407 92.0762 35.2633 91.5885 35.7727C91.1008 36.2538 90.484 36.4943 89.7381 36.4943C88.9922 36.4943 88.3754 36.2538 87.8877 35.7727C87.4 35.2633 87.1562 34.6407 87.1562 33.9049V16.3729C87.1562 15.6371 87.4 15.0287 87.8877 14.5476C88.3754 14.0382 88.9922 13.7835 89.7381 13.7835C90.484 13.7835 91.1008 14.0382 91.5885 14.5476C92.0762 15.0287 92.32 15.6371 92.32 16.3729V18.1983L91.6745 18.0709C91.9327 17.5898 92.2913 17.0804 92.7503 16.5427C93.2094 15.9767 93.7688 15.4532 94.4286 14.9721C95.0884 14.491 95.82 14.1089 96.6232 13.8259C97.4265 13.5146 98.3015 13.359 99.2482 13.359Z" fill="#323231"/>
<path d="M129.538 33.9049C129.538 34.6407 129.294 35.2633 128.806 35.7727C128.318 36.2538 127.701 36.4943 126.956 36.4943C126.21 36.4943 125.593 36.2538 125.105 35.7727C124.618 35.2633 124.374 34.6407 124.374 33.9049V16.3729C124.374 15.6371 124.618 15.0287 125.105 14.5476C125.593 14.0382 126.21 13.7835 126.956 13.7835C127.701 13.7835 128.318 14.0382 128.806 14.5476C129.294 15.0287 129.538 15.6371 129.538 16.3729V33.9049ZM126.913 11.0242C125.937 11.0242 125.249 10.8686 124.847 10.5573C124.445 10.246 124.245 9.6941 124.245 8.9017V8.09514C124.245 7.27444 124.46 6.72259 124.89 6.43959C125.349 6.12828 126.038 5.97263 126.956 5.97263C127.96 5.97263 128.663 6.12828 129.064 6.43959C129.466 6.75089 129.667 7.30274 129.667 8.09514V8.9017C129.667 9.7224 129.451 10.2884 129.021 10.5997C128.591 10.8827 127.888 11.0242 126.913 11.0242Z" fill="#323231"/>
<path d="M145 13.359C147.123 13.359 148.73 13.7976 149.82 14.6749C150.939 15.5522 151.699 16.7267 152.101 18.1983C152.531 19.6416 152.746 21.2547 152.746 23.0376V33.9049C152.746 34.6407 152.502 35.2633 152.014 35.7727C151.527 36.2538 150.91 36.4943 150.164 36.4943C149.418 36.4943 148.801 36.2538 148.314 35.7727C147.826 35.2633 147.582 34.6407 147.582 33.9049V23.0376C147.582 22.1037 147.453 21.2689 147.195 20.5331C146.965 19.7689 146.535 19.1605 145.904 18.7077C145.273 18.2549 144.369 18.0285 143.193 18.0285C142.045 18.0285 141.07 18.2549 140.267 18.7077C139.492 19.1605 138.89 19.7689 138.459 20.5331C138.058 21.2689 137.857 22.1037 137.857 23.0376V33.9049C137.857 34.6407 137.613 35.2633 137.125 35.7727C136.638 36.2538 136.021 36.4943 135.275 36.4943C134.529 36.4943 133.912 36.2538 133.425 35.7727C132.937 35.2633 132.693 34.6407 132.693 33.9049V16.3729C132.693 15.6371 132.937 15.0287 133.425 14.5476C133.912 14.0382 134.529 13.7835 135.275 13.7835C136.021 13.7835 136.638 14.0382 137.125 14.5476C137.613 15.0287 137.857 15.6371 137.857 16.3729V18.1983L137.211 18.0709C137.47 17.5898 137.842 17.0804 138.33 16.5427C138.818 15.9767 139.392 15.4532 140.051 14.9721C140.711 14.491 141.457 14.1089 142.289 13.8259C143.121 13.5146 144.025 13.359 145 13.359Z" fill="#323231"/>
<path d="M178.294 25.1601C178.294 27.4807 177.764 29.5325 176.702 31.3154C175.669 33.07 174.264 34.4426 172.485 35.4331C170.735 36.4236 168.77 36.9188 166.59 36.9188C164.409 36.9188 162.43 36.4236 160.651 35.4331C158.901 34.4426 157.495 33.07 156.434 31.3154C155.401 29.5325 154.885 27.4807 154.885 25.1601C154.885 22.8395 155.401 20.8019 156.434 19.0473C157.495 17.2644 158.901 15.8777 160.651 14.8872C162.43 13.8684 164.409 13.359 166.59 13.359C168.77 13.359 170.735 13.8684 172.485 14.8872C174.264 15.8777 175.669 17.2644 176.702 19.0473C177.764 20.8019 178.294 22.8395 178.294 25.1601ZM173.131 25.1601C173.131 23.7168 172.829 22.4716 172.227 21.4245C171.653 20.3491 170.864 19.5142 169.86 18.9199C168.885 18.3256 167.795 18.0285 166.59 18.0285C165.385 18.0285 164.28 18.3256 163.276 18.9199C162.301 19.5142 161.512 20.3491 160.909 21.4245C160.336 22.4716 160.049 23.7168 160.049 25.1601C160.049 26.5751 160.336 27.8203 160.909 28.8957C161.512 29.9428 162.301 30.7635 163.276 31.3578C164.28 31.9522 165.385 32.2493 166.59 32.2493C167.795 32.2493 168.885 31.9522 169.86 31.3578C170.864 30.7635 171.653 29.9428 172.227 28.8957C172.829 27.8203 173.131 26.5751 173.131 25.1601Z" fill="#323231"/>
<path d="M197.541 13.7835C198.287 13.7835 198.904 14.0382 199.391 14.5476C199.879 15.0287 200.123 15.6371 200.123 16.3729V27.1553C200.123 30.1551 199.277 32.5323 197.584 34.2869C195.891 36.0415 193.453 36.9188 190.268 36.9188C187.084 36.9188 184.646 36.0415 182.953 34.2869C181.289 32.5323 180.457 30.1551 180.457 27.1553V16.3729C180.457 15.6371 180.701 15.0287 181.189 14.5476C181.676 14.0382 182.293 13.7835 183.039 13.7835C183.785 13.7835 184.402 14.0382 184.889 14.5476C185.377 15.0287 185.621 15.6371 185.621 16.3729V27.1553C185.621 28.8816 186.008 30.1692 186.783 31.0182C187.557 31.839 188.719 32.2493 190.268 32.2493C191.846 32.2493 193.022 31.839 193.797 31.0182C194.572 30.1692 194.959 28.8816 194.959 27.1553V16.3729C194.959 15.6371 195.203 15.0287 195.69 14.5476C196.178 14.0382 196.795 13.7835 197.541 13.7835Z" fill="#323231"/>
<path d="M202.228 32.971C201.941 32.5748 201.812 32.0653 201.84 31.4427C201.869 30.8201 202.242 30.2824 202.959 29.8296C203.418 29.5466 203.906 29.4334 204.422 29.49C204.939 29.5183 205.441 29.773 205.928 30.2541C206.76 31.0748 207.635 31.7116 208.553 32.1644C209.471 32.6172 210.619 32.8436 211.996 32.8436C212.426 32.8153 212.9 32.7587 213.416 32.6738C213.932 32.5606 214.377 32.3342 214.75 31.9946C215.152 31.6267 215.353 31.0748 215.353 30.339C215.353 29.7164 215.137 29.2212 214.707 28.8533C214.277 28.4854 213.703 28.1741 212.986 27.9194C212.297 27.6647 211.523 27.4241 210.662 27.1977C209.773 26.943 208.855 26.66 207.908 26.3487C206.99 26.0374 206.144 25.6412 205.369 25.1601C204.594 24.6507 203.963 23.9857 203.476 23.165C202.988 22.3443 202.744 21.3113 202.744 20.0661C202.744 18.6511 203.146 17.4483 203.949 16.4578C204.752 15.4673 205.785 14.7032 207.047 14.1655C208.338 13.6278 209.687 13.359 211.092 13.359C211.982 13.359 212.914 13.4722 213.889 13.6986C214.865 13.8967 215.797 14.2363 216.687 14.7174C217.576 15.1702 218.322 15.7786 218.924 16.5427C219.24 16.9672 219.426 17.4766 219.484 18.0709C219.541 18.6652 219.268 19.2029 218.666 19.684C218.236 20.0236 217.734 20.1793 217.16 20.151C216.586 20.0944 216.113 19.8963 215.74 19.5567C215.252 18.9341 214.592 18.4388 213.76 18.0709C212.957 17.703 212.025 17.5191 210.963 17.5191C210.533 17.5191 210.06 17.5757 209.543 17.6889C209.055 17.7738 208.625 17.986 208.252 18.3256C207.879 18.6369 207.693 19.1463 207.693 19.8538C207.693 20.5047 207.908 21.0283 208.338 21.4245C208.769 21.7924 209.342 22.1037 210.06 22.3584C210.805 22.5848 211.594 22.8112 212.426 23.0376C213.287 23.264 214.162 23.5329 215.051 23.8442C215.941 24.1555 216.758 24.5658 217.504 25.0752C218.25 25.5846 218.852 26.2497 219.311 27.0704C219.77 27.8628 220 28.8816 220 30.1268C220 31.5701 219.57 32.8012 218.709 33.82C217.848 34.8388 216.773 35.617 215.482 36.1547C214.191 36.6641 212.871 36.9188 211.523 36.9188C209.83 36.9188 208.137 36.6358 206.445 36.0698C204.752 35.4755 203.347 34.4426 202.228 32.971Z" fill="#323231"/>
</g>
</svg>
