<svg style="display: none;">
    <symbol id="i-target" viewBox="0 0 52 52" fill="none" xmlns="http://www.w3.org/2000/svg">
        <path d="M32.9057 26C32.9057 29.8139 29.8139 32.9057 26 32.9057C22.1861 32.9057 19.0943 29.8139 19.0943 26C19.0943 22.1861 22.1861 19.0943 26 19.0943M37.9434 5.17813C34.4261 3.15628 30.3481 2 26 2C12.7452 2 2 12.7452 2 26C2 39.2548 12.7452 50 26 50C39.2548 50 50 39.2548 50 26C50 21.6519 48.8437 17.5739 46.8219 14.0566M39.6376 19.0943C40.6899 21.1685 41.283 23.515 41.283 26C41.283 34.4406 34.4406 41.283 26 41.283C17.5594 41.283 10.717 34.4406 10.717 26C10.717 17.5594 17.5594 10.717 26 10.717C28.5531 10.717 30.96 11.343 33.0755 12.4499M26.1698 26L43.717 8.50943M43.717 8.50943H50V3.81132L48.4151 2.22642H43.717V8.50943Z" stroke="#C41E3A" stroke-width="3" stroke-linecap="round"/>
    </symbol>
    <symbol id="i-suitcase" viewBox="0 0 68 66" fill="none" xmlns="http://www.w3.org/2000/svg">
        <path d="M19.8323 13.4708H12.3518C8.90122 13.7207 2 16.1847 2 24.0414C2 27.2478 2 31.6204 2 36.1115M19.8323 13.4708V6.57363C19.782 5.04926 20.724 2.00051 24.8949 2.00051C29.0659 2.00051 38.5211 2.00051 42.7273 2.00051C44.44 1.97552 47.8654 2.85516 47.8654 6.57363C47.8654 10.2921 47.8654 12.7211 47.8654 13.4708M19.8323 13.4708H47.8654M47.8654 13.4708H55.3459C63.0229 13.4708 65.6474 20.5179 66 24.0414C66 26.834 66 31.2912 66 36.1115M2 36.1115C2 42.6252 2 49.3883 2 53.2044C2 57.7026 3.28453 64 12.3518 64H55.3459C58.8973 63.8751 66 61.541 66 53.2044C66 48.5943 66 42.075 66 36.1115M2 36.1115H24.8949M24.8949 36.1115V31.8382H42.7273V36.1115M24.8949 36.1115V37.6858C24.9453 39.4351 25.9377 42.9337 29.5041 42.9337C33.0706 42.9337 37.1358 42.9337 38.7225 42.9337C40.0575 42.8587 42.7273 41.7042 42.7273 37.6858C42.7273 36.8462 42.7273 36.2864 42.7273 36.1115M42.7273 36.1115H66" stroke="#C41E3A" stroke-width="3" stroke-linecap="round"/>
    </symbol>
</svg>
