<svg width="54" height="68" viewBox="0 0 54 68" fill="none" xmlns="http://www.w3.org/2000/svg">
    <path d="M51.9962 52.3445V12.7292C52.0961 9.15277 50.2572 2 42.1019 2H10.4701C7.64675 2.17507 2 4.56599 2 12.7292V52.3445M51.9962 52.3445V55.3457C51.9962 63.929 45.4 66.0248 42.1019 65.9998H10.4701C3.69402 65.9998 2 58.897 2 55.3457V52.3445M51.9962 52.3445H2M17.9658 25.1089L12.7188 31.8616L17.9658 38.164M36.1803 25.1089L41.0525 31.8616L36.1803 38.164M29.3592 25.1089L24.9368 38.164M12.7188 11.3036C12.7188 12.0909 12.0812 12.7292 11.2946 12.7292C10.5081 12.7292 9.87047 12.0909 9.87047 11.3036C9.87047 10.5163 10.5081 9.87805 11.2946 9.87805C12.0812 9.87805 12.7188 10.5163 12.7188 11.3036Z" stroke="#C41E3A" stroke-width="3" stroke-linecap="round"/>
</svg>