<svg width="34" height="36" viewBox="0 0 34 36" fill="none" xmlns="http://www.w3.org/2000/svg">
<path d="M21.3924 4.10576C21.3924 5.27897 22.2944 6.47474 22.7454 6.92597C23.4036 7.3772 24.464 7.90364 26.1827 7.15159C27.5576 6.54994 28.6083 7.15159 28.9618 7.52761L31.1924 11.3255C31.8018 12.065 32.6551 13.7772 31.1924 14.7098C29.364 15.8754 29.2543 17.53 29.2543 17.7556C29.2543 17.9812 29.1081 19.7109 30.8633 21.0646C32.2674 22.1476 31.9115 23.4461 31.558 23.96C31.0583 24.9377 29.9491 27.066 29.5103 27.7579C28.9618 28.6228 27.9379 29.6381 26.5118 28.886C25.0857 28.134 23.8058 28.4348 23.1476 28.7732C22.4894 29.1116 21.3924 30.4653 21.3924 31.9318C21.3924 33.1051 20.0516 33.7995 19.3812 34H14.5543C13.2014 34 12.6894 32.5335 12.5066 31.5934C11.5924 28.4724 9.58121 28.0964 7.82599 28.886C6.42181 29.5177 5.24192 28.6228 4.82749 28.0964C4.32774 27.3067 3.1454 25.3739 2.41406 23.96C1.68272 22.5462 2.45063 21.566 2.926 21.2526C3.49888 20.9142 4.64465 19.8463 4.64465 18.282C4.64465 16.3267 4.46182 16.3267 2.926 14.973C1.69734 13.89 1.95088 12.6667 2.23122 12.1904C2.93819 10.962 4.43256 8.35488 4.75435 7.75323C5.15659 7.00118 5.96107 6.62515 7.09465 7.11398C8.52077 7.71563 10.3126 7.49001 10.9342 7.11398C11.5558 6.73796 12.5431 5.76028 12.5431 4.10576C12.5431 2.78214 13.7133 2.15041 14.2984 2H19.2715C20.0028 2 21.3924 2.63925 21.3924 4.10576Z" stroke="#C41E3A" stroke-width="3" stroke-linecap="round"/>
<path d="M24.6716 17.9436C24.6716 22.3048 21.2336 25.8402 16.9925 25.8402C12.7515 25.8402 9.31342 22.3048 9.31342 17.9436C9.31342 13.5824 12.7515 10.047 16.9925 10.047C21.2336 10.047 24.6716 13.5824 24.6716 17.9436Z" stroke="#C41E3A" stroke-width="3" stroke-linecap="round"/>
</svg>
