<svg width="46" height="46" viewBox="0 0 46 46" fill="none" xmlns="http://www.w3.org/2000/svg">
    <path d="M26.9437 40.0563C26.9437 42.2344 25.178 44 23 44C20.822 44 19.0563 42.2344 19.0563 40.0563M26.9437 40.0563C26.9437 37.8783 25.178 36.1127 23 36.1127M26.9437 40.0563H36.1127M19.0563 40.0563C19.0563 37.8783 20.822 36.1127 23 36.1127M19.0563 40.0563H9.88732M23 36.1127V30.3944M9.88732 40.0563C9.88732 42.2344 8.12169 44 5.94366 44C3.76564 44 2 42.2344 2 40.0563C2 37.8783 3.76564 36.1127 5.94366 36.1127C8.12169 36.1127 9.88732 37.8783 9.88732 40.0563ZM36.1127 40.0563C36.1127 42.2344 37.8783 44 40.0563 44C42.2344 44 44 42.2344 44 40.0563C44 37.8783 42.2344 36.1127 40.0563 36.1127C37.8783 36.1127 36.1127 37.8783 36.1127 40.0563ZM23 30.3944H34.9296C39.939 30.3944 44 26.3334 44 21.3239C44 16.3145 39.939 12.2535 34.9296 12.2535C34.3565 12.2535 33.7959 12.3067 33.2524 12.4083C33.2531 12.3568 33.2535 12.3052 33.2535 12.2535C33.2535 6.59066 28.6629 2 23 2C17.3371 2 12.7465 6.59066 12.7465 12.2535C12.7465 12.2936 12.7467 12.3336 12.7472 12.3736C12.2657 12.2946 11.7714 12.2535 11.2676 12.2535C6.25815 12.2535 2.19718 16.3145 2.19718 21.3239C2.19718 26.3334 6.25815 30.3944 11.2676 30.3944H23Z" stroke="#C41E3A" stroke-width="3" stroke-linecap="round"/>
</svg>