<svg width="48" height="52" viewBox="0 0 48 52" fill="none" xmlns="http://www.w3.org/2000/svg">
    <path d="M20.6549 17.306H7.7152C6.47772 17.306 5.47455 16.2982 5.47455 15.0551V4.25088C5.47455 3.00775 6.47772 2 7.7152 2H38.1934C38.7655 2 39.316 2.21984 39.7319 2.61446L45.4258 8.01657C46.362 8.90482 46.362 10.4012 45.4258 11.2894L39.7319 16.6915C39.316 17.0861 38.7655 17.306 38.1934 17.306H27.5449M20.6549 17.306V24.2837M20.6549 17.306H27.5449M20.6549 24.2837H10.0625C9.49034 24.2837 8.9399 24.5035 8.52397 24.8982L2.83009 30.3003C1.89387 31.1885 1.89387 32.6849 2.83009 33.5731L8.52397 38.9752C8.9399 39.3698 9.49034 39.5897 10.0625 39.5897H20.6549M20.6549 24.2837H27.5449M27.5449 17.306V24.2837M27.5449 24.2837H40.5407C41.7781 24.2837 42.7813 25.2915 42.7813 26.5346V37.3388C42.7813 38.5819 41.7781 39.5897 40.5407 39.5897H27.5449M27.5449 39.5897V50M27.5449 39.5897H20.6549M27.5449 50H20.6549M27.5449 50H34.603M20.6549 39.5897V50M20.6549 50H13.5969" stroke="#C41E3A" stroke-width="3" stroke-linecap="round"/>
</svg>