<svg width="36" height="36" viewBox="0 0 36 36" fill="none" xmlns="http://www.w3.org/2000/svg">
<path d="M24.8463 11.1537H13.0449C12.0004 11.1537 11.1537 12.0004 11.1537 13.0449V24.8463M24.8463 11.1537H32.1087C33.1533 11.1537 34 12.0004 34 13.0449V32.1087C34 33.1533 33.1533 34 32.1087 34H13.0449C12.0004 34 11.1537 33.1533 11.1537 32.1087V24.8463M24.8463 11.1537V3.89125C24.8463 2.84674 23.9996 2 22.9551 2H3.89125C2.84674 2 2 2.84674 2 3.89125V22.9551C2 23.9996 2.84674 24.8463 3.89125 24.8463H11.1537M22.5012 18.2648V22.5768M22.5012 22.5768V26.7376M22.5012 22.5768H26.7376M22.5012 22.5768H18.3404" stroke="#C41E3A" stroke-width="3" stroke-linecap="round"/>
</svg>
