<svg width="46" height="46" viewBox="0 0 46 46" fill="none" xmlns="http://www.w3.org/2000/svg">
    <path d="M11.8099 32.1474H15.4085M34.1408 32.1474H30.5915M30.5915 32.1474V19.3114M30.5915 32.1474H22.9507M22.9507 32.1474V25.2622M22.9507 32.1474H15.4085M15.4085 32.1474V22.4589M7.71831 44H38.2817C41.4398 44 44 41.4458 44 38.2951V7.70489C44 4.55417 41.4398 2 38.2817 2H7.71831C4.56018 2 2 4.55417 2 7.70489V38.2951C2 41.4458 4.56018 44 7.71831 44ZM10.6761 9.62291C10.6761 10.2476 10.1684 10.7541 9.54225 10.7541C8.91607 10.7541 8.40845 10.2476 8.40845 9.62291C8.40845 8.9982 8.91607 8.49177 9.54225 8.49177C10.1684 8.49177 10.6761 8.9982 10.6761 9.62291ZM16.6901 9.62291C16.6901 10.2476 16.1825 10.7541 15.5563 10.7541C14.9302 10.7541 14.4225 10.2476 14.4225 9.62291C14.4225 8.9982 14.9302 8.49177 15.5563 8.49177C16.1825 8.49177 16.6901 8.9982 16.6901 9.62291Z" stroke="#C41E3A" stroke-width="3" stroke-linecap="round"/>
</svg>