<svg width="200" height="50" viewBox="0 0 200 50" fill="none" xmlns="http://www.w3.org/2000/svg">
    <g opacity="0.3">
    <path d="M76.6895 13.8477V49.5927H67.9083V34.8772H54.2488V49.5927H45.4677V13.8477H54.2488V27.8504H67.9083V13.8477H76.6895Z" fill="#323231"/>
    <path d="M85.3907 18.2267C83.8502 18.2267 82.5835 17.7854 81.5907 16.9029C80.6322 15.9863 80.1529 14.8661 80.1529 13.5422C80.1529 12.1844 80.6322 11.0642 81.5907 10.1816C82.5835 9.26505 83.8502 8.80679 85.3907 8.80679C86.8971 8.80679 88.1295 9.26505 89.0881 10.1816C90.0809 11.0642 90.5773 12.1844 90.5773 13.5422C90.5773 14.8661 90.0809 15.9863 89.0881 16.9029C88.1295 17.7854 86.8971 18.2267 85.3907 18.2267ZM89.7556 21.18V49.5927H80.9745V21.18H89.7556Z" fill="#323231"/>
    <path d="M110.036 42.2094V49.5927H105.568C102.384 49.5927 99.9021 48.8289 98.1219 47.3013C96.3418 45.7398 95.4517 43.2108 95.4517 39.7144V28.4105H91.9597V21.18H95.4517V14.2551H104.233V21.18H109.984V28.4105H104.233V39.8163C104.233 40.6649 104.438 41.2759 104.849 41.6493C105.26 42.0227 105.945 42.2094 106.903 42.2094H110.036Z" fill="#323231"/>
    <path d="M139.884 34.9281C139.884 35.7428 139.832 36.5914 139.73 37.474H119.857C119.993 39.2392 120.558 40.597 121.551 41.5475C122.578 42.464 123.828 42.9223 125.3 42.9223C127.491 42.9223 129.014 42.0058 129.87 40.1727H139.216C138.737 42.0397 137.864 43.72 136.597 45.2136C135.365 46.7073 133.807 47.8784 131.924 48.727C130.041 49.5757 127.936 50 125.608 50C122.801 50 120.302 49.406 118.111 48.2178C115.92 47.0297 114.208 45.3325 112.975 43.126C111.743 40.9195 111.127 38.3396 111.127 35.3863C111.127 32.4331 111.726 29.8532 112.924 27.6467C114.156 25.4402 115.868 23.7429 118.059 22.5548C120.25 21.3667 122.766 20.7727 125.608 20.7727C128.381 20.7727 130.846 21.3498 133.003 22.5039C135.159 23.6581 136.837 25.3044 138.035 27.443C139.267 29.5816 139.884 32.0766 139.884 34.9281ZM130.897 32.6367C130.897 31.1431 130.384 29.955 129.357 29.0724C128.33 28.1898 127.046 27.7485 125.505 27.7485C124.033 27.7485 122.784 28.1729 121.757 29.0215C120.764 29.8701 120.148 31.0752 119.908 32.6367H130.897Z" fill="#323231"/>
    <path d="M140.716 35.3863C140.716 32.4331 141.315 29.8532 142.513 27.6467C143.746 25.4402 145.44 23.7429 147.597 22.5548C149.788 21.3667 152.287 20.7727 155.095 20.7727C158.689 20.7727 161.685 21.7062 164.081 23.5732C166.512 25.4402 168.104 28.071 168.857 31.4656H159.511C158.723 29.2931 157.2 28.2068 154.941 28.2068C153.332 28.2068 152.048 28.8348 151.089 30.0908C150.131 31.3128 149.651 33.078 149.651 35.3863C149.651 37.6947 150.131 39.4768 151.089 40.7328C152.048 41.9549 153.332 42.5659 154.941 42.5659C157.2 42.5659 158.723 41.4796 159.511 39.3071H168.857C168.104 42.6338 166.512 45.2476 164.081 47.1486C161.65 49.0495 158.655 50 155.095 50C152.287 50 149.788 49.406 147.597 48.2178C145.44 47.0297 143.746 45.3325 142.513 43.126C141.315 40.9195 140.716 38.3396 140.716 35.3863Z" fill="#323231"/>
    <path d="M189.113 20.8745C192.4 20.8745 195.036 21.9608 197.022 24.1333C199.007 26.2719 200 29.2252 200 32.9932V49.5927H191.27V34.1643C191.27 32.2633 190.774 30.7867 189.781 29.7344C188.788 28.682 187.453 28.1559 185.776 28.1559C184.098 28.1559 182.763 28.682 181.77 29.7344C180.777 30.7867 180.281 32.2633 180.281 34.1643V49.5927H171.5V11.9128H180.281V24.9989C181.171 23.7429 182.386 22.7415 183.927 21.9947C185.467 21.2479 187.196 20.8745 189.113 20.8745Z" fill="#323231"/>
    <path d="M1.36253e-06 30.9083L0 0H10.3926L10.3926 15.8883C12.2065 15.1941 14.1776 14.8134 16.2384 14.8134C25.2067 14.8134 32.4769 22.0223 32.4769 30.9149V49.5927H22.0843V30.9149C22.0843 27.7136 19.467 25.1184 16.2384 25.1184C13.0113 25.1184 10.3949 27.7113 10.3926 30.9107C10.3926 30.9121 10.3926 30.9135 10.3926 30.9149L10.3926 49.5927H2.1862e-06L0 30.9149C0 30.9127 4.54206e-07 30.9105 1.36253e-06 30.9083Z" fill="#323231"/>
    <path d="M22.0843 10.305V0H32.4769V10.305L22.0843 10.305Z" fill="#323231"/>
    </g>
</svg>