<svg width="54" height="68" viewBox="0 0 54 68" fill="none" xmlns="http://www.w3.org/2000/svg">
<path d="M36.0839 11.4648H47.0682C50.655 11.4648 51.8506 14.77 52 16.4225V59.7653C52 64.092 48.8118 65.7246 47.2177 66H7.91302C2.89159 66 1.88531 62.0438 2.00985 60.0657V16.4977C2.00985 12.6516 5.44714 11.5399 7.16578 11.4648H17.926M36.0839 11.4648V5.9061C35.9344 4.60407 34.694 2 30.9279 2H22.0358C20.6659 2.07512 17.926 2.9615 17.926 5.9061V11.4648M36.0839 11.4648H17.926M21.8864 38.1315L26.0709 42.338L31.9741 36.4038M41.7629 38.6573C41.7629 46.8715 35.1388 53.5305 26.9676 53.5305C18.7964 53.5305 12.1723 46.8715 12.1723 38.6573C12.1723 30.443 18.7964 23.784 26.9676 23.784C35.1388 23.784 41.7629 30.443 41.7629 38.6573Z" stroke="#C41E3A" stroke-width="3" stroke-linecap="round"/>
</svg>
