<svg width="68" height="68" viewBox="0 0 68 68" fill="none" xmlns="http://www.w3.org/2000/svg">
<path d="M66 20.318V11.0459C65.7223 8.0306 63.2431 2 55.5479 2H11.0888C8.05917 2.10051 2 4.0504 2 11.0459V20.318M66 20.318V55.597C66 63.9795 59.032 66.0249 55.5479 65.9998H11.0888C4.30249 65.9998 2.20197 59.9692 2 56.9539V20.318M66 20.318H2M12.1491 11.1213H22.6012M26.0852 31.7007H50.4734M26.0852 43.3096H41.6876M26.0852 54.5416H46.9136M47.0651 11.1213C47.0651 12.0372 46.3191 12.7797 45.3988 12.7797C44.4786 12.7797 43.7325 12.0372 43.7325 11.1213C43.7325 10.2054 44.4786 9.46287 45.3988 9.46287C46.3191 9.46287 47.0651 10.2054 47.0651 11.1213ZM19.4959 31.7761C19.4959 32.692 18.7498 33.4345 17.8296 33.4345C16.9093 33.4345 16.1633 32.692 16.1633 31.7761C16.1633 30.8602 16.9093 30.1177 17.8296 30.1177C18.7498 30.1177 19.4959 30.8602 19.4959 31.7761ZM19.4959 43.2342C19.4959 44.1502 18.7498 44.8927 17.8296 44.8927C16.9093 44.8927 16.1633 44.1502 16.1633 43.2342C16.1633 42.3183 16.9093 41.5758 17.8296 41.5758C18.7498 41.5758 19.4959 42.3183 19.4959 43.2342ZM19.4959 54.6924C19.4959 55.6083 18.7498 56.3508 17.8296 56.3508C16.9093 56.3508 16.1633 55.6083 16.1633 54.6924C16.1633 53.7765 16.9093 53.034 17.8296 53.034C18.7498 53.034 19.4959 53.7765 19.4959 54.6924ZM56.3053 11.1213C56.3053 12.0372 55.5593 12.7797 54.6391 12.7797C53.7188 12.7797 52.9728 12.0372 52.9728 11.1213C52.9728 10.2054 53.7188 9.46287 54.6391 9.46287C55.5593 9.46287 56.3053 10.2054 56.3053 11.1213Z" stroke="#C41E3A" stroke-width="3" stroke-linecap="round"/>
</svg>
