<svg width="29" height="36" viewBox="0 0 29 36" fill="none" xmlns="http://www.w3.org/2000/svg">
<path d="M11.5996 14.8787H22.2327M11.5996 20.6831H17.8445M11.5996 26.2991H20.4548M19.0419 6.73239H24.5341C26.3275 6.73239 26.9253 8.38498 27 9.21127V30.8826C27 33.046 25.4059 33.8623 24.6088 34H4.95651C2.44579 34 1.94266 32.0219 2.00492 31.0329V9.24883C2.00492 7.32582 3.72357 6.76995 4.58289 6.73239H9.963M19.0419 6.73239V3.95305C18.9672 3.30203 18.347 2 16.464 2H12.0179C11.3329 2.03756 9.963 2.48075 9.963 3.95305V6.73239M19.0419 6.73239H9.963M8.30846 14.9164C8.30846 15.3743 7.93585 15.7456 7.47621 15.7456C7.01657 15.7456 6.64396 15.3743 6.64396 14.9164C6.64396 14.4584 7.01657 14.0872 7.47621 14.0872C7.93585 14.0872 8.30846 14.4584 8.30846 14.9164ZM8.30846 20.6454C8.30846 21.1034 7.93585 21.4747 7.47621 21.4747C7.01657 21.4747 6.64396 21.1034 6.64396 20.6454C6.64396 20.1875 7.01657 19.8162 7.47621 19.8162C7.93585 19.8162 8.30846 20.1875 8.30846 20.6454ZM8.30846 26.3745C8.30846 26.8325 7.93585 27.2037 7.47621 27.2037C7.01657 27.2037 6.64396 26.8325 6.64396 26.3745C6.64396 25.9166 7.01657 25.5453 7.47621 25.5453C7.93585 25.5453 8.30846 25.9166 8.30846 26.3745Z" stroke="#C41E3A" stroke-width="3" stroke-linecap="round"/>
</svg>
