<svg width="220" height="44" viewBox="0 0 220 44" fill="none" xmlns="http://www.w3.org/2000/svg">
    <g opacity="0.3">
    <path d="M26.869 4.8711H11.5153V0H26.869C32.1688 0 36.4651 4.36173 36.4651 9.7422V25.3297H31.6671V9.7422C31.6671 7.05197 29.5189 4.8711 26.869 4.8711Z" fill="#323231"/>
    <path d="M9.59608 32.1493H24.9498V37.0204H9.59608C4.29631 37.0204 -4.63321e-07 32.6586 0 27.2782L9.91391e-07 11.6906H4.79804L4.79804 27.2782C4.79804 29.9684 6.9462 32.1493 9.59608 32.1493Z" fill="#323231"/>
    <path fill-rule="evenodd" clip-rule="evenodd" d="M27.8286 18.5102C27.8286 23.8906 23.5323 28.2524 18.2326 28.2524C12.9328 28.2524 8.63648 23.8906 8.63648 18.5102C8.63648 13.1297 12.9328 8.76798 18.2326 8.76798C23.5323 8.76798 27.8286 13.1297 27.8286 18.5102ZM23.0306 18.5102C23.0306 21.2004 20.8825 23.3813 18.2326 23.3813C15.5827 23.3813 13.4345 21.2004 13.4345 18.5102C13.4345 15.8199 15.5827 13.6391 18.2326 13.6391C20.8825 13.6391 23.0306 15.8199 23.0306 18.5102Z" fill="#323231"/>
    <path d="M56.9407 33.9181C55.1234 33.9181 53.4877 33.6018 52.0338 32.9692C50.5799 32.3102 49.4375 31.3877 48.6067 30.2016C47.7759 29.0155 47.3605 27.6317 47.3605 26.0502H52.1117C52.2155 27.2363 52.6699 28.2116 53.4747 28.976C54.3055 29.7403 55.4609 30.1225 56.9407 30.1225C58.4725 30.1225 59.6668 29.7535 60.5236 29.0155C61.3804 28.2511 61.8087 27.2759 61.8087 26.0898C61.8087 25.1672 61.5361 24.416 60.9909 23.8362C60.4717 23.2563 59.8096 22.8082 59.0048 22.4919C58.2259 22.1756 57.1355 21.833 55.7335 21.4639C53.968 20.9895 52.5271 20.5151 51.4107 20.0406C50.3203 19.5398 49.3856 18.7754 48.6067 17.7475C47.8279 16.7195 47.4384 15.3489 47.4384 13.6356C47.4384 12.0542 47.8279 10.6704 48.6067 9.48425C49.3856 8.29815 50.476 7.3888 51.878 6.75621C53.28 6.12362 54.9027 5.80732 56.746 5.80732C59.3682 5.80732 61.5102 6.47945 63.1718 7.8237C64.8593 9.1416 65.794 10.9603 65.9757 13.2798H61.0688C60.9909 12.2782 60.5236 11.4216 59.6668 10.7099C58.8101 9.99823 57.6807 9.6424 56.2787 9.6424C55.0065 9.6424 53.968 9.97188 53.1632 10.6308C52.3583 11.2898 51.9559 12.2387 51.9559 13.4775C51.9559 14.3209 52.2026 15.0194 52.6958 15.5729C53.2151 16.1001 53.8642 16.5218 54.643 16.8381C55.4219 17.1544 56.4864 17.4971 57.8364 17.8661C59.6279 18.3669 61.0818 18.8677 62.1982 19.3685C63.3405 19.8693 64.3011 20.6468 65.08 21.7012C65.8849 22.7291 66.2873 24.1129 66.2873 25.8525C66.2873 27.2495 65.9108 28.5674 65.1579 29.8062C64.431 31.0451 63.3535 32.0467 61.9256 32.8111C60.5236 33.5491 58.862 33.9181 56.9407 33.9181Z" fill="#323231"/>
    <path d="M80.4051 11.5006C82.0927 11.5006 83.5985 11.8565 84.9226 12.5681C86.2726 13.2798 87.3241 14.3341 88.077 15.7311C88.83 17.1281 89.2064 18.815 89.2064 20.7918V33.6413H84.8057V21.4639C84.8057 19.5135 84.3254 18.0242 83.3648 16.9963C82.4042 15.942 81.0931 15.4148 79.4315 15.4148C77.7699 15.4148 76.4458 15.942 75.4592 16.9963C74.4986 18.0242 74.0183 19.5135 74.0183 21.4639V33.6413H69.5787V11.8565H74.0183V14.3473C74.7452 13.4511 75.6669 12.7526 76.7833 12.2518C77.9257 11.751 79.1329 11.5006 80.4051 11.5006Z" fill="#323231"/>
    <path d="M91.4423 22.6501C91.4423 20.4623 91.8837 18.525 92.7664 16.8381C93.6751 15.1512 94.8954 13.8465 96.4272 12.924C97.9849 11.9751 99.6985 11.5006 101.568 11.5006C103.255 11.5006 104.722 11.8433 105.968 12.5286C107.241 13.1875 108.253 14.0178 109.006 15.0194V11.8565H113.485V33.6413H109.006V30.3993C108.253 31.4273 107.228 32.2839 105.929 32.9692C104.631 33.6545 103.151 33.9972 101.49 33.9972C99.6465 33.9972 97.959 33.5227 96.4272 32.5738C94.8954 31.5986 93.6751 30.2543 92.7664 28.5411C91.8837 26.8014 91.4423 24.8378 91.4423 22.6501ZM109.006 22.7291C109.006 21.2267 108.695 19.922 108.071 18.815C107.474 17.7079 106.682 16.8645 105.696 16.2846C104.709 15.7047 103.645 15.4148 102.502 15.4148C101.36 15.4148 100.296 15.7047 99.309 16.2846C98.3224 16.8381 97.5176 17.6684 96.8945 18.7754C96.2974 19.8561 95.9988 21.1476 95.9988 22.6501C95.9988 24.1525 96.2974 25.4704 96.8945 26.6037C97.5176 27.7371 98.3224 28.607 99.309 29.2132C100.322 29.7931 101.386 30.083 102.502 30.083C103.645 30.083 104.709 29.7931 105.696 29.2132C106.682 28.6333 107.474 27.7899 108.071 26.6828C108.695 25.5494 109.006 24.2315 109.006 22.7291Z" fill="#323231"/>
    <path d="M121.808 15.059C122.561 14.0574 123.587 13.2139 124.885 12.5286C126.183 11.8433 127.65 11.5006 129.286 11.5006C131.155 11.5006 132.855 11.9751 134.387 12.924C135.945 13.8465 137.165 15.1512 138.048 16.8381C138.931 18.525 139.372 20.4623 139.372 22.6501C139.372 24.8378 138.931 26.8014 138.048 28.5411C137.165 30.2543 135.945 31.5986 134.387 32.5738C132.855 33.5227 131.155 33.9972 129.286 33.9972C127.65 33.9972 126.196 33.6677 124.924 33.0087C123.652 32.3234 122.613 31.48 121.808 30.4784V44H117.369V11.8565H121.808V15.059ZM134.855 22.6501C134.855 21.1476 134.543 19.8561 133.92 18.7754C133.323 17.6684 132.518 16.8381 131.505 16.2846C130.519 15.7047 129.454 15.4148 128.312 15.4148C127.196 15.4148 126.131 15.7047 125.119 16.2846C124.132 16.8645 123.327 17.7079 122.704 18.815C122.107 19.922 121.808 21.2267 121.808 22.7291C121.808 24.2315 122.107 25.5494 122.704 26.6828C123.327 27.7899 124.132 28.6333 125.119 29.2132C126.131 29.7931 127.196 30.083 128.312 30.083C129.454 30.083 130.519 29.7931 131.505 29.2132C132.518 28.607 133.323 27.7371 133.92 26.6037C134.543 25.4704 134.855 24.1525 134.855 22.6501Z" fill="#323231"/>
    <path d="M150.733 33.9181C148.916 33.9181 147.28 33.6018 145.826 32.9692C144.372 32.3102 143.23 31.3877 142.399 30.2016C141.568 29.0155 141.153 27.6317 141.153 26.0502H145.904C146.008 27.2363 146.462 28.2116 147.267 28.976C148.098 29.7403 149.253 30.1225 150.733 30.1225C152.265 30.1225 153.459 29.7535 154.316 29.0155C155.173 28.2511 155.601 27.2759 155.601 26.0898C155.601 25.1672 155.329 24.416 154.783 23.8362C154.264 23.2563 153.602 22.8082 152.797 22.4919C152.018 22.1756 150.928 21.833 149.526 21.4639C147.761 20.9895 146.32 20.5151 145.203 20.0406C144.113 19.5398 143.178 18.7754 142.399 17.7475C141.62 16.7195 141.231 15.3489 141.231 13.6356C141.231 12.0542 141.62 10.6704 142.399 9.48425C143.178 8.29815 144.269 7.3888 145.671 6.75621C147.073 6.12362 148.695 5.80732 150.539 5.80732C153.161 5.80732 155.303 6.47945 156.964 7.8237C158.652 9.1416 159.587 10.9603 159.768 13.2798H154.861C154.783 12.2782 154.316 11.4216 153.459 10.7099C152.603 9.99823 151.473 9.6424 150.071 9.6424C148.799 9.6424 147.761 9.97188 146.956 10.6308C146.151 11.2898 145.748 12.2387 145.748 13.4775C145.748 14.3209 145.995 15.0194 146.488 15.5729C147.008 16.1001 147.657 16.5218 148.436 16.8381C149.214 17.1544 150.279 17.4971 151.629 17.8661C153.42 18.3669 154.874 18.8677 155.991 19.3685C157.133 19.8693 158.094 20.6468 158.873 21.7012C159.677 22.7291 160.08 24.1129 160.08 25.8525C160.08 27.2495 159.703 28.5674 158.95 29.8062C158.224 31.0451 157.146 32.0467 155.718 32.8111C154.316 33.5491 152.655 33.9181 150.733 33.9181Z" fill="#323231"/>
    <path d="M174.47 11.5006C176.106 11.5006 177.56 11.8565 178.832 12.5681C180.13 13.2798 181.143 14.3341 181.87 15.7311C182.623 17.1281 182.999 18.815 182.999 20.7918V33.6413H178.598V21.4639C178.598 19.5135 178.118 18.0242 177.157 16.9963C176.197 15.942 174.886 15.4148 173.224 15.4148C171.562 15.4148 170.238 15.942 169.252 16.9963C168.291 18.0242 167.811 19.5135 167.811 21.4639V33.6413H163.371V4.38399H167.811V14.3868C168.564 13.4643 169.511 12.7526 170.654 12.2518C171.822 11.751 173.094 11.5006 174.47 11.5006Z" fill="#323231"/>
    <path d="M196.022 33.9972C193.997 33.9972 192.167 33.5359 190.531 32.6134C188.896 31.6645 187.611 30.3466 186.676 28.6597C185.741 26.9464 185.274 24.9696 185.274 22.7291C185.274 20.5151 185.754 18.5514 186.715 16.8381C187.675 15.1249 188.987 13.807 190.648 12.8844C192.31 11.9619 194.166 11.5006 196.217 11.5006C198.268 11.5006 200.124 11.9619 201.786 12.8844C203.448 13.807 204.759 15.1249 205.719 16.8381C206.68 18.5514 207.16 20.5151 207.16 22.7291C207.16 24.9432 206.667 26.9069 205.68 28.6201C204.694 30.3334 203.344 31.6645 201.63 32.6134C199.943 33.5359 198.073 33.9972 196.022 33.9972ZM196.022 30.083C197.165 30.083 198.229 29.8062 199.216 29.2527C200.228 28.6992 201.046 27.8689 201.669 26.7619C202.292 25.6549 202.604 24.3106 202.604 22.7291C202.604 21.1477 202.305 19.8166 201.708 18.7359C201.111 17.6289 200.319 16.7986 199.333 16.2451C198.346 15.6916 197.282 15.4148 196.139 15.4148C194.997 15.4148 193.932 15.6916 192.946 16.2451C191.985 16.7986 191.219 17.6289 190.648 18.7359C190.077 19.8166 189.791 21.1477 189.791 22.7291C189.791 25.075 190.376 26.8937 191.544 28.1852C192.738 29.4504 194.231 30.083 196.022 30.083Z" fill="#323231"/>
    <path d="M214.782 15.5334V27.5922C214.782 28.4093 214.963 29.0023 215.327 29.3713C215.716 29.714 216.365 29.8853 217.274 29.8853H220V33.6413H216.495C214.496 33.6413 212.964 33.1669 211.9 32.218C210.835 31.2691 210.303 29.7272 210.303 27.5922V15.5334H207.772V11.8565H210.303V6.43991H214.782V11.8565H220V15.5334H214.782Z" fill="#323231"/>
    </g>
</svg>