<svg width="52" height="52" viewBox="0 0 52 52" fill="none" xmlns="http://www.w3.org/2000/svg">
    <path d="M7.21033 50V45.4654C7.17299 44.894 6.8407 43.4525 5.81021 42.2581C4.77972 41.0636 3.47667 39.2903 2.95395 38.553C2.63659 38 2.00187 36.3853 2.00187 34.3502V24.894C1.96453 24.0092 2.47231 22.2396 4.80212 22.2396C5.02307 22.2396 5.22819 22.256 5.41818 22.2872M10.4026 35.1244C10.0479 34.5899 9.17051 33.1336 8.49845 31.5853C8.14091 30.7615 7.88377 29.8387 7.71014 29.0415M7.71014 29.0415C7.5574 28.3402 7.4693 27.7362 7.43435 27.3825V24.894C7.43435 23.6231 6.86545 22.5249 5.41818 22.2872M7.71014 29.0415L10.1786 28.0461C10.8693 27.7512 12.71 27.7032 14.547 29.871C16.8432 32.5806 17.5713 34.6267 17.5713 36.894V42.2581M17.5713 50V42.2581M44.7897 50V45.4654C44.827 44.894 45.1593 43.4525 46.1898 42.2581C47.2203 41.0636 48.5233 39.2903 49.046 38.553C49.3634 38 49.9981 36.3853 49.9981 34.3502V24.894C50.0355 24.0092 49.5277 22.2396 47.1979 22.2396C46.9769 22.2396 46.7718 22.256 46.5818 22.2872M41.5974 35.1244C41.9521 34.5899 42.8295 33.1336 43.5016 31.5853C43.8591 30.7615 44.1162 29.8387 44.2899 29.0415M44.2899 29.0415C44.4426 28.3402 44.5307 27.7362 44.5656 27.3825V24.894C44.5656 23.6231 45.1345 22.5249 46.5818 22.2872M44.2899 29.0415L41.8214 28.0461C41.1307 27.7512 39.29 27.7032 37.453 29.871C35.1568 32.5806 34.4287 34.6267 34.4287 36.894V42.2581M34.4287 50V42.2581M17.5713 42.2581H34.4287M5.41818 22.2872V6.81106C5.41818 3.09493 8.03174 2.0553 9.33852 2C12.3342 2 16.3975 2 20.6515 2M46.5818 22.2872V6.81106C46.5632 5.20737 45.5849 2 41.8214 2C40.2734 2 36.0696 2 31.0124 2M20.6515 2V13.6682C20.6329 14.3134 21.0212 15.6037 22.7237 15.6037C24.4263 15.6037 27.7268 15.6037 29.1643 15.6037C29.7803 15.5484 31.0124 15.0839 31.0124 13.6682C31.0124 12.2525 31.0124 5.29954 31.0124 2M20.6515 2C24.138 2 27.7525 2 31.0124 2" stroke="#C41E3A" stroke-width="3" stroke-linecap="round"/>
</svg>