<svg width="36" height="36" viewBox="0 0 36 36" fill="none" xmlns="http://www.w3.org/2000/svg">
<path d="M6.96667 27.0333H12.2667M12.2667 27.0333V24.9333M12.2667 27.0333V29.3667M15.9667 27.0333H29.1333M6.4 34H29.6C32.0301 34 34 32.0301 34 29.6V6.4C34 3.96995 32.0301 2 29.6 2H6.4C3.96995 2 2 3.96995 2 6.4V29.6C2 32.0301 3.96995 34 6.4 34ZM14.3667 11.7333V17.3C14.5111 18.2444 15.3 19.8933 17.3 18.9333C18.1 18.5 20.1867 17.3667 22.1333 16.3C24.08 15.2333 23.3889 13.7444 22.8 13.1333C21.5733 12.3333 18.7333 10.9778 17.4667 10.4C16.4333 9.91667 14.3667 9.50666 14.3667 11.7333Z" stroke="#C41E3A" stroke-width="3" stroke-linecap="round"/>
</svg>
